<svg width="1891" height="911" xmlns="http://www.w3.org/2000/svg" xmlns:xlink="http://www.w3.org/1999/xlink" overflow="hidden"><defs><clipPath id="clip0"><path d="M-377-167 1514-167 1514 744-377 744Z" fill-rule="evenodd" clip-rule="evenodd"/></clipPath></defs><g clip-path="url(#clip0)" transform="translate(377 167)"><rect x="-376" y="-167" width="1889" height="910" fill="#333F50"/><rect x="0" y="0" width="37.5538" height="14.7967" fill="#FFFFFF" transform="matrix(-0.707107 -0.707107 -0.707107 0.707107 409.941 70.0226)"/><rect x="0" y="0" width="3.95821" height="3.95821" fill="#5E9EE4" transform="matrix(-0.707107 -0.707107 -0.707107 0.707107 408.196 69.8271)"/><rect x="0" y="0" width="3.95821" height="3.95821" fill="#5E9EE4" transform="matrix(-0.707107 -0.707107 -0.707107 0.707107 405.181 66.8123)"/><rect x="0" y="0" width="3.95821" height="3.95821" fill="#5E9EE4" transform="matrix(-0.707107 -0.707107 -0.707107 0.707107 402.166 63.7976)"/><rect x="0" y="0" width="3.95821" height="3.95821" fill="#5E9EE4" transform="matrix(-0.707107 -0.707107 -0.707107 0.707107 399.151 60.7829)"/><rect x="0" y="0" width="3.95821" height="3.95821" fill="#5E9EE4" transform="matrix(-0.707107 -0.707107 -0.707107 0.707107 405.138 72.8843)"/><rect x="0" y="0" width="3.95821" height="3.95821" fill="#5E9EE4" transform="matrix(-0.707107 -0.707107 -0.707107 0.707107 402.124 69.8695)"/><rect x="0" y="0" width="3.95821" height="3.95821" fill="#5E9EE4" transform="matrix(-0.707107 -0.707107 -0.707107 0.707107 399.109 66.8548)"/><rect x="0" y="0" width="3.95821" height="3.95821" fill="#5E9EE4" transform="matrix(-0.707107 -0.707107 -0.707107 0.707107 396.094 63.8401)"/><rect x="0" y="0" width="3.95821" height="3.95821" fill="#5E9EE4" transform="matrix(-0.707107 -0.707107 -0.707107 0.707107 402.081 75.9414)"/><rect x="0" y="0" width="3.95821" height="3.95821" fill="#5E9EE4" transform="matrix(-0.707107 -0.707107 -0.707107 0.707107 399.066 72.9267)"/><rect x="0" y="0" width="3.95821" height="3.95821" fill="#5E9EE4" transform="matrix(-0.707107 -0.707107 -0.707107 0.707107 396.052 69.912)"/><rect x="0" y="0" width="3.95821" height="3.95821" fill="#5E9EE4" transform="matrix(-0.707107 -0.707107 -0.707107 0.707107 393.037 66.8973)"/><rect x="0" y="0" width="3.95821" height="3.95821" fill="#5E9EE4" transform="matrix(-0.707107 -0.707107 -0.707107 0.707107 395.404 57.0355)"/><rect x="0" y="0" width="3.95821" height="3.95821" fill="#5E9EE4" transform="matrix(-0.707107 -0.707107 -0.707107 0.707107 392.389 54.0207)"/><rect x="0" y="0" width="3.95821" height="3.95821" fill="#5E9EE4" transform="matrix(-0.707107 -0.707107 -0.707107 0.707107 389.374 51.006)"/><rect x="0" y="0" width="3.95821" height="3.95821" fill="#5E9EE4" transform="matrix(-0.707107 -0.707107 -0.707107 0.707107 386.36 47.9913)"/><rect x="0" y="0" width="3.95821" height="3.95821" fill="#5E9EE4" transform="matrix(-0.707107 -0.707107 -0.707107 0.707107 392.347 60.0927)"/><rect x="0" y="0" width="3.95821" height="3.95821" fill="#5E9EE4" transform="matrix(-0.707107 -0.707107 -0.707107 0.707107 389.332 57.0779)"/><rect x="0" y="0" width="3.95821" height="3.95821" fill="#5E9EE4" transform="matrix(-0.707107 -0.707107 -0.707107 0.707107 386.317 54.0632)"/><rect x="0" y="0" width="3.95821" height="3.95821" fill="#5E9EE4" transform="matrix(-0.707107 -0.707107 -0.707107 0.707107 383.302 51.0485)"/><rect x="0" y="0" width="3.95821" height="3.95821" fill="#5E9EE4" transform="matrix(-0.707107 -0.707107 -0.707107 0.707107 389.289 63.1498)"/><rect x="0" y="0" width="3.95821" height="3.95821" fill="#5E9EE4" transform="matrix(-0.707107 -0.707107 -0.707107 0.707107 386.275 60.1351)"/><rect x="0" y="0" width="3.95821" height="3.95821" fill="#5E9EE4" transform="matrix(-0.707107 -0.707107 -0.707107 0.707107 383.26 57.1204)"/><rect x="0" y="0" width="3.95821" height="3.95821" fill="#5E9EE4" transform="matrix(-0.707107 -0.707107 -0.707107 0.707107 380.245 54.1057)"/><path d="M0 3.31926 4.06987 0 11.1403 0 15.2102 3.31926Z" fill="#D9D9D9" fill-rule="evenodd" transform="matrix(0.707107 0.707107 0.707107 -0.707107 348.892 50.6562)"/><rect x="0" y="0" width="15.2102" height="22.7155" fill="#D9D9D9" transform="matrix(-0.707107 -0.707107 -0.707107 0.707107 378.057 43.0021)"/><path d="M0 0 1.33685 0C2.07517-1.93646e-15 2.6737 3.40492 2.6737 7.60509 2.6737 11.8053 2.07517 15.2102 1.33685 15.2102L0 15.2102Z" fill="#D9D9D9" fill-rule="evenodd" transform="matrix(0.707107 -0.707107 -0.707107 -0.707107 378.061 42.9982)"/><rect x="0" y="0" width="2.43496" height="3.49018" fill="#D9D9D9" transform="matrix(-0.707107 -0.707107 -0.707107 0.707107 377.782 34.2439)"/><path d="M8.28802 21.9837C3.71281 21.9866 0.00214376 17.0676 1.23463e-05 10.997-0.00211907 4.92635 3.70509 0.00283021 8.2803 2.13634e-06 8.28158 1.34116e-06 8.28287 9.43573e-07 8.28416 9.43573e-07Z" fill="#D9D9D9" fill-rule="evenodd" transform="matrix(0.707107 -0.707107 -0.707107 -0.707107 384.497 41.3519)"/><rect x="0" y="0" width="1.29407" height="12.8021" fill="#D9D9D9" transform="matrix(-0.707107 -0.707107 -0.707107 0.707107 390.475 20.7431)"/><path d="M0 1.35795C-1.72885e-16 0.607976 0.607976 -1.72885e-16 1.35795 -3.45771e-16 2.10793 -6.91542e-16 2.71591 0.607976 2.71591 1.35795 2.71591 2.10793 2.10793 2.71591 1.35795 2.71591 0.607976 2.71591 -8.64428e-16 2.10793 0 1.35795Z" fill="#D9D9D9" fill-rule="evenodd" transform="matrix(-0.707107 -0.707107 -0.707107 0.707107 392.383 19.8414)"/><path d="M7.76341 26.0348 0 26.0348 0 0 3.69349 0 7.76339 3.31928 7.76341 3.31928ZM0.158298 52.5417 0 52.5098 0 26.0401 7.76339 26.0401 7.76339 27.377C7.76339 28.023 5.1565 28.562 1.69097 28.6867L1.37576 28.6923 1.37576 31.8493 2.38539 31.9271C3.1204 32.0417 3.84353 32.2136 4.54293 32.4429 8.55514 33.7583 11.1501 36.7419 11.1501 40.0394L0.805346 40.0412 0.805346 50.0125 1.1185 50.2236C1.36425 50.4693 1.51624 50.8088 1.51624 51.1838 1.51624 51.9338 0.908262 52.5417 0.158298 52.5417Z" fill="#FFFFFF" fill-rule="evenodd" transform="matrix(0.707107 0.707107 0.707107 -0.707107 354.22 55.9841)"/><rect x="0" y="0" width="37.5538" height="14.7967" fill="#D9D9D9" transform="matrix(-0.707107 -0.707107 -0.707107 0.707107 366.472 27.405)"/><rect x="0" y="0" width="3.95821" height="3.95821" fill="#5E9EE4" transform="matrix(-0.707107 -0.707107 -0.707107 0.707107 364.727 27.2096)"/><rect x="0" y="0" width="3.95821" height="3.95821" fill="#5E9EE4" transform="matrix(-0.707107 -0.707107 -0.707107 0.707107 361.712 24.1947)"/><rect x="0" y="0" width="3.95821" height="3.95821" fill="#5E9EE4" transform="matrix(-0.707107 -0.707107 -0.707107 0.707107 358.698 21.1801)"/><rect x="0" y="0" width="3.95821" height="3.95821" fill="#5E9EE4" transform="matrix(-0.707107 -0.707107 -0.707107 0.707107 355.683 18.1654)"/><rect x="0" y="0" width="3.95821" height="3.95821" fill="#5E9EE4" transform="matrix(-0.707107 -0.707107 -0.707107 0.707107 361.67 30.2668)"/><rect x="0" y="0" width="3.95821" height="3.95821" fill="#5E9EE4" transform="matrix(-0.707107 -0.707107 -0.707107 0.707107 358.655 27.252)"/><rect x="0" y="0" width="3.95821" height="3.95821" fill="#5E9EE4" transform="matrix(-0.707107 -0.707107 -0.707107 0.707107 355.64 24.2373)"/><rect x="0" y="0" width="3.95821" height="3.95821" fill="#5E9EE4" transform="matrix(-0.707107 -0.707107 -0.707107 0.707107 352.626 21.2226)"/><rect x="0" y="0" width="3.95821" height="3.95821" fill="#5E9EE4" transform="matrix(-0.707107 -0.707107 -0.707107 0.707107 358.613 33.3239)"/><rect x="0" y="0" width="3.95821" height="3.95821" fill="#5E9EE4" transform="matrix(-0.707107 -0.707107 -0.707107 0.707107 355.598 30.3092)"/><rect x="0" y="0" width="3.95821" height="3.95821" fill="#5E9EE4" transform="matrix(-0.707107 -0.707107 -0.707107 0.707107 352.583 27.2945)"/><rect x="0" y="0" width="3.95821" height="3.95821" fill="#5E9EE4" transform="matrix(-0.707107 -0.707107 -0.707107 0.707107 349.569 24.2798)"/><rect x="0" y="0" width="3.95821" height="3.95821" fill="#5E9EE4" transform="matrix(-0.707107 -0.707107 -0.707107 0.707107 351.935 14.418)"/><rect x="0" y="0" width="3.95821" height="3.95821" fill="#5E9EE4" transform="matrix(-0.707107 -0.707107 -0.707107 0.707107 348.921 11.4031)"/><rect x="0" y="0" width="3.95821" height="3.95821" fill="#5E9EE4" transform="matrix(-0.707107 -0.707107 -0.707107 0.707107 345.906 8.38845)"/><rect x="0" y="0" width="3.95821" height="3.95821" fill="#5E9EE4" transform="matrix(-0.707107 -0.707107 -0.707107 0.707107 342.891 5.37375)"/><rect x="0" y="0" width="3.95821" height="3.95821" fill="#5E9EE4" transform="matrix(-0.707107 -0.707107 -0.707107 0.707107 348.878 17.4752)"/><rect x="0" y="0" width="3.95821" height="3.95821" fill="#5E9EE4" transform="matrix(-0.707107 -0.707107 -0.707107 0.707107 345.864 14.4604)"/><rect x="0" y="0" width="3.95821" height="3.95821" fill="#5E9EE4" transform="matrix(-0.707107 -0.707107 -0.707107 0.707107 342.849 11.4457)"/><rect x="0" y="0" width="3.95821" height="3.95821" fill="#5E9EE4" transform="matrix(-0.707107 -0.707107 -0.707107 0.707107 339.834 8.43097)"/><rect x="0" y="0" width="3.95821" height="3.95821" fill="#5E9EE4" transform="matrix(-0.707107 -0.707107 -0.707107 0.707107 345.821 20.5323)"/><rect x="0" y="0" width="3.95821" height="3.95821" fill="#5E9EE4" transform="matrix(-0.707107 -0.707107 -0.707107 0.707107 342.806 17.5176)"/><rect x="0" y="0" width="3.95821" height="3.95821" fill="#5E9EE4" transform="matrix(-0.707107 -0.707107 -0.707107 0.707107 339.792 14.5029)"/><rect x="0" y="0" width="3.95821" height="3.95821" fill="#5E9EE4" transform="matrix(-0.707107 -0.707107 -0.707107 0.707107 336.777 11.4882)"/><rect x="0" y="0" width="4.09795" height="3.31926" fill="#FFFFFF" transform="matrix(-0.707107 -0.707107 -0.707107 0.707107 379.554 47.3001)"/><rect x="0" y="0" width="4.09795" height="3.31926" fill="#D9D9D9" transform="matrix(-0.707107 -0.707107 -0.707107 0.707107 365.932 33.6782)"/><path d="M1066 92.5C1066 57.9822 1093.98 30 1128.5 30 1163.02 30 1191 57.9822 1191 92.5 1191 127.018 1163.02 155 1128.5 155 1093.98 155 1066 127.018 1066 92.5Z" fill="#DAE3F3" fill-rule="evenodd" fill-opacity="0.2"/><path d="M1081 92.5C1081 66.2665 1102.27 45 1128.5 45 1154.73 45 1176 66.2665 1176 92.5 1176 118.734 1154.73 140 1128.5 140 1102.27 140 1081 118.734 1081 92.5Z" fill="#4472C4" fill-rule="evenodd"/><path d="M1108.3 53.1482C1107.87 53.3198 1107.45 53.5008 1107.01 53.6631 1106.76 53.7583 1106.43 53.7286 1106.24 53.9205 1106.04 54.1123 1106.06 54.4353 1105.98 54.6927 1105.89 55.9798 1106.11 57.3227 1105.72 58.5539 1105.61 58.8916 1105.03 58.7141 1104.69 58.8113 1104.43 58.8858 1104.17 58.9942 1103.91 59.0687 1103.57 59.1659 1103.22 59.2289 1102.88 59.3261 1102.62 59.4006 1102.37 59.5247 1102.1 59.5835 1101.59 59.6968 1101.07 59.7476 1100.55 59.8409 1100.12 59.9192 1099.69 60.0125 1099.26 60.0983 1099.01 60.2699 1098.71 60.3944 1098.49 60.6132 1097.86 61.2402 1097.95 61.588 1097.71 62.4151 1097.64 62.6759 1097.54 62.9299 1097.46 63.1873 1097.54 63.4447 1097.8 63.7021 1097.71 63.9595 1097.57 64.3843 1096.52 65.011 1096.16 65.2466 1094.79 67.3059 1096.59 64.8176 1094.87 66.5336 1094.65 66.7524 1094.54 67.0584 1094.36 67.3059 1092.92 69.2099 1093.68 67.8799 1092.81 69.6226 1092.98 70.1374 1092.81 70.9954 1093.32 71.167 1095.37 71.8469 1094.34 71.5926 1096.42 71.9393 1096.25 72.1967 1096.06 72.4429 1095.91 72.7115 1095.36 73.6595 1095.2 74.4459 1094.36 75.2856 1094.1 75.543 1093.89 75.8559 1093.58 76.0579 1093.36 76.2084 1093.07 76.2295 1092.81 76.3153 1092.55 76.5727 1092.13 76.7375 1092.03 77.0875 1091.93 77.4277 1092.07 77.8409 1092.29 78.1172 1092.46 78.329 1092.8 78.3387 1093.07 78.3746 1094.09 78.5111 1095.13 78.5462 1096.16 78.632 1097.89 78.4604 1099.62 78.4007 1101.33 78.1172 1102.45 77.9308 1103.09 77.8423 1104.17 77.6023 1104.52 77.5256 1104.86 77.4245 1105.2 77.3449L1107.53 76.8301C1107.61 76.5727 1107.72 76.3211 1107.79 76.0579 1107.89 75.6334 1107.62 74.8769 1108.04 74.7708 1108.14 74.748 1109.21 76.3809 1109.34 76.5727 1109.42 76.9159 1109.45 77.2772 1109.59 77.6023 1109.72 77.8867 1109.97 78.0978 1110.11 78.3746 1110.23 78.6173 1110.28 78.8894 1110.37 79.1468 1110.11 79.2326 1109.86 79.3297 1109.59 79.4042 1107.32 80.0509 1109.64 79.3017 1107.79 79.919 1107.87 80.348 1108.04 80.7686 1108.04 81.2061 1108.04 82.1557 1107.46 85.089 1107.27 85.8395 1107.18 86.1827 1107.21 86.5748 1107.01 86.8692 1106.84 87.1266 1106.51 87.2456 1106.24 87.384 1105.99 87.5053 1105.73 87.5804 1105.46 87.6414 1104.61 87.8382 1103.74 87.9846 1102.88 88.1562 1102.79 88.4994 1102.62 88.8321 1102.62 89.1859 1102.62 92.4856 1104.15 90.6035 1108.04 90.2155 1106.68 89.7624 1107.5 89.8076 1105.72 90.9878L1104.95 91.5026C1104.77 91.76 1104.61 92.0231 1104.43 92.2748 1104.18 92.6239 1103.85 92.9207 1103.65 93.3045 1103.5 93.6209 1103.49 93.9939 1103.4 94.3341 1103.32 94.595 1103.22 94.8489 1103.14 95.1063 1103.05 95.7679 1102.6 97.6458 1103.14 98.4527 1103.29 98.6785 1103.65 98.6243 1103.91 98.7101 1104.43 99.0533 1105.27 99.1528 1105.46 99.7398 1105.71 100.477 1105.7 100.831 1106.49 101.284 1106.8 101.46 1107.18 101.465 1107.53 101.542 1109.4 101.956 1108.21 101.596 1109.59 102.056 1111.07 103.524 1109.85 102.043 1110.63 103.858 1110.75 104.143 1110.94 104.393 1111.14 104.631 1111.55 105.118 1112.11 105.628 1112.69 105.918 1112.94 106.039 1113.21 106.089 1113.47 106.175 1113.9 106.089 1114.45 106.227 1114.76 105.918 1115.07 105.608 1115.02 105.068 1115.02 104.631 1115.02 103.932 1114.91 101.605 1114.5 100.512 1114.37 100.153 1114.14 99.835 1113.98 99.4823 1113.76 98.9654 1113.6 98.2028 1113.47 97.6805 1113.66 94.2125 1112.27 93.2842 1114.5 92.7896 1115.01 92.6764 1115.53 92.618 1116.05 92.5322 1117 92.618 1117.98 92.5293 1118.89 92.7896 1119.24 92.8896 1119.49 93.2436 1119.67 93.5619 1119.93 94.0362 1120.18 95.1063 1120.18 95.1063 1120.01 95.3637 1119.8 95.6018 1119.67 95.8786 1119.35 96.5003 1119.51 96.9313 1118.89 97.423 1118.72 97.5574 1117.15 97.921 1117.08 97.9379 1116.83 98.1095 1116.59 98.3143 1116.31 98.4527 1116.07 98.574 1115.73 98.5182 1115.53 98.7101 1115.34 98.902 1115.34 99.2191 1115.28 99.4823L1114.76 101.542C1114.89 102.064 1115.05 102.826 1115.28 103.343 1115.43 103.696 1115.55 104.078 1115.79 104.373 1116.18 104.836 1117.43 105.234 1117.86 105.403 1118.35 106.376 1118.9 107 1118.12 108.234 1117.78 108.756 1116.57 109.264 1116.57 109.264 1116.39 109.521 1115.91 109.759 1116.05 110.036 1116.21 110.353 1116.74 110.196 1117.08 110.294 1117.35 110.368 1117.6 110.465 1117.86 110.551L1119.41 111.581C1119.67 111.752 1119.88 112.035 1120.18 112.095 1120.61 112.181 1121.05 112.247 1121.47 112.353 1121.74 112.419 1121.98 112.557 1122.25 112.61 1122.85 112.729 1123.45 112.782 1124.06 112.868 1124.31 112.954 1124.71 112.882 1124.83 113.125 1126.02 115.491 1124.11 114.603 1125.86 115.184 1126.29 115.013 1126.71 114.806 1127.16 114.67 1127.83 114.462 1129.22 114.155 1129.22 114.155 1129.88 113.166 1130.01 112.547 1131.03 112.095 1131.53 111.875 1132.58 111.581 1132.58 111.581 1132.84 111.666 1133.13 111.688 1133.35 111.838 1134.1 112.335 1134.18 112.613 1134.39 113.383 1134.57 114.065 1134.9 115.442 1134.9 115.442 1134.82 115.871 1134.51 116.314 1134.65 116.729 1134.73 116.986 1135.16 116.912 1135.42 116.986 1135.76 117.084 1136.11 117.158 1136.45 117.244 1137.36 117.845 1137.92 118.461 1139.29 117.501 1139.74 117.19 1139.64 116.472 1139.81 115.957 1139.93 115.593 1140.5 115.613 1140.84 115.442 1140.93 115.184 1141.04 114.935 1141.1 114.67 1141.58 112.541 1141.46 111.247 1141.1 108.749 1141.07 108.514 1140.3 107.175 1140.07 106.947 1139.85 106.729 1139.55 106.604 1139.29 106.432 1139.38 105.574 1139.17 104.63 1139.55 103.858 1139.69 103.582 1140.11 104.154 1140.33 104.373 1140.63 104.677 1141.1 105.403 1141.1 105.403 1140.42 103.375 1140.88 105.052 1141.1 100.769 1141.21 98.7968 1141.27 96.8224 1141.36 94.8489 1142.57 94.9347 1143.8 94.8142 1144.98 95.1063 1145.28 95.1814 1145.35 95.6018 1145.49 95.8786 1145.81 96.5122 1145.91 97.6022 1146.01 98.1953 1145.96 99.2993 1144.12 104.07 1146.78 104.888 1147.53 105.116 1148.33 105.06 1149.11 105.145 1150.91 104.996 1152.57 105.025 1154.27 104.373 1154.74 104.194 1155.17 103.913 1155.56 103.601 1156.56 102.806 1156.91 102.237 1157.63 101.284 1158.09 99.924 1158.16 100.051 1157.63 97.9379 1157.49 97.3795 1157.08 96.9224 1156.86 96.3934 1156.57 95.735 1156.24 94.2307 1155.56 93.5619 1153.81 91.8093 1155.92 94.7853 1153.76 92.0174 1153.45 91.6225 1153.28 91.1306 1152.98 90.7303 1152.76 90.4391 1152.43 90.2454 1152.21 89.9581 1150.43 87.6764 1152.02 89.0486 1150.14 87.6414 1150.05 86.0969 1150.07 84.5429 1149.88 83.008 1149.81 82.4695 1149.54 81.9784 1149.37 81.4635 1149.28 81.2061 1149.33 80.8418 1149.11 80.6913 1147.18 79.4135 1148.64 80.1958 1144.2 79.919 1142.73 79.4314 1143.62 79.8535 1141.88 78.1172 1140.62 76.8688 1141.11 77.4914 1140.33 76.3153 1139.98 76.4011 1139.59 76.3764 1139.29 76.5727 1139.04 76.7443 1139 77.1262 1138.78 77.3449 1138.56 77.5637 1138.22 77.641 1138 77.8598 1137.7 78.1631 1137.55 78.6044 1137.23 78.8894 1136.76 79.3005 1136.19 79.5758 1135.68 79.919 1134.9 80.4361 1134.79 80.5568 1133.87 80.9487 1133.62 81.0556 1133.35 81.1203 1133.1 81.2061 1132.75 81.0345 1132.36 80.9369 1132.06 80.6913 1131.65 80.3467 1131.42 79.6395 1131.29 79.1468 1131.1 78.4642 1130.94 77.7739 1130.77 77.0875 1130.69 76.7443 1130.63 76.3935 1130.51 76.0579 1130.14 74.95 1130.32 75.5489 1130 74.256 1130.08 73.4838 1129.95 72.6565 1130.25 71.9393 1130.42 71.5433 1130.91 71.3799 1131.29 71.167 1132.12 70.6911 1132.96 70.1834 1133.87 69.88L1136.19 69.1078 1136.97 68.8503C1137.49 68.9361 1138.06 68.8488 1138.52 69.1078 1138.76 69.2424 1138.61 69.6658 1138.78 69.88 1139.23 70.4547 1139.84 70.8833 1140.33 71.4245 1140.74 71.8806 1141.26 72.6892 1141.62 73.2263 1142.09 74.6333 1141.52 73.6855 1143.43 74.256 1144.93 74.7044 1144.06 74.8293 1145.49 75.543 1146.37 75.9785 1147.39 76.127 1148.33 76.3153 1148.88 76.1947 1150.81 76.0589 1151.43 75.2856 1151.6 75.0737 1151.6 74.7708 1151.69 74.5134 1151.6 73.3121 1151.62 72.0992 1151.43 70.9096 1151.36 70.4532 1151.18 69.9986 1150.92 69.6226 1150.73 69.3708 1150.45 69.1536 1150.14 69.1078 1148.69 68.891 1147.21 68.9361 1145.75 68.8503 1145.54 68.2237 1145.22 67.7139 1145.75 67.0485 1145.92 66.8366 1146.27 66.8769 1146.53 66.791 1146.78 66.5336 1147.08 66.3062 1147.3 66.0188 1147.68 65.5304 1148.33 64.4743 1148.33 64.4743 1146.78 63.9581 1147.95 64.6016 1148.33 63.4447L1148.07 62.6725 1149.62 60.3558C1149.8 60.0984 1150.04 59.877 1150.14 59.5835L1150.4 58.8113C1150.83 59.2403 1151.35 59.5935 1151.69 60.0983 1151.89 60.3927 1151.85 60.7878 1151.95 61.128 1152.02 61.3889 1152.06 61.6745 1152.21 61.9002 1152.41 62.2031 1152.74 62.3961 1152.98 62.6725 1154.24 64.1344 1153.15 63.3982 1154.79 64.2169 1154.96 64.4743 1155 64.9892 1155.31 64.9892 1155.64 64.9892 1156.02 63.6351 1156.08 63.4447 1155.8 60.0643 1156.35 61.1414 1155.05 59.0687 1154.88 58.8064 1154.8 58.45 1154.53 58.2965 1154.15 58.0794 1153.67 58.134 1153.24 58.0391 1152.89 57.9623 1152.55 57.8675 1152.21 57.7816 1149.04 54.6283 1152.24 57.4352 1150.14 56.2372 1149.32 55.7708 1149.13 55.3485 1148.33 54.9501 1148.09 54.8288 1147.82 54.7785 1147.56 54.6927 1145.63 53.4144 1148 55.0574 1146.01 53.4056 1145.77 53.2076 1145.49 53.0624 1145.23 52.8908 1143.75 50.6777 1145.72 53.2821 1143.94 51.8612 1143.7 51.6679 1143.66 51.2926 1143.43 51.0889 1142.96 50.6815 1142.39 50.4025 1141.88 50.0593L1141.1 49.5445C1140.67 49.7161 1140.27 50.002 1139.81 50.0593 1139.36 50.1154 1138.56 49.4834 1138.26 49.2871 1138.17 49.0297 1138.22 48.6725 1138 48.5148 1137.56 48.1994 1136.45 48 1136.45 48 1133.35 48.0858 1130.25 48.1031 1127.16 48.2574 1126.8 48.2751 1126.46 48.4132 1126.12 48.5148 1125.6 48.6708 1124.57 49.0296 1124.57 49.0296 1123.97 48.9438 1123.36 48.8912 1122.77 48.7722 1122.07 48.6335 1120.7 48.2574 1120.7 48.2574 1119.41 48.3432 1118.11 48.3324 1116.83 48.5148 1116.29 48.5916 1115.28 49.0296 1115.28 49.0296 1114.76 49.3729 1114.32 49.8636 1113.73 50.0593L1112.18 50.5741C1112.09 50.8315 1112.09 51.1345 1111.92 51.3463 1111.41 51.9776 1110.55 51.979 1109.85 52.1186L1108.3 53.1482Z" fill="#70AD47" fill-rule="evenodd"/><path d="M1098.46 84.7016C1097.86 84.5194 1097.43 83.6517 1095.38 84.155 1094.85 84.2845 1093.84 84.7016 1093.84 84.7016 1092.4 86.9975 1093.16 85.4262 1093.58 90.9874 1093.61 91.4505 1093.51 92.0516 1093.84 92.3539 1094.23 92.7145 1094.86 92.5361 1095.38 92.6272 1095.98 94.5403 1095.38 94.0848 1096.66 94.5403 1096.92 94.4492 1097.2 94.1188 1097.43 94.267 1097.98 94.6201 1098.15 96.6392 1098.2 97 1098.46 96.3623 1098.77 95.7451 1098.97 95.0869 1099.13 94.5896 1099.4 92.4936 1099.49 92.0806 1099.55 91.7994 1099.68 91.5402 1099.74 91.2607 1099.85 90.8101 1099.91 90.3497 1100 89.8942 1099.91 89.4387 1099.8 88.9876 1099.74 88.5277 1099.42 86.1154 1099.93 86.6056 1098.97 85.2482 1098.9 85.1451 1099.06 84.8838 1098.46 84.7016Z" fill="#70AD47" fill-rule="evenodd"/><path d="M1163.53 67C1163.87 67.4257 1164.41 67.7499 1164.55 68.2771 1165.86 73.2373 1163.65 70.6983 1165.57 72.6191 1165.66 72.9596 1165.75 73.298 1165.83 73.6407 1165.92 74.0645 1165.98 74.4966 1166.09 74.9178 1166.15 75.179 1166.27 75.4251 1166.34 75.684 1166.44 76.0215 1166.51 76.3651 1166.6 76.7057 1166.98 81.2976 1166.57 78.3729 1167.11 80.7922 1167.21 81.216 1167.21 81.6628 1167.37 82.0693 1167.47 82.3567 1167.71 82.5801 1167.88 82.8355 1167.96 83.0909 1167.99 83.3777 1168.14 83.6018 1168.34 83.9023 1168.67 84.0905 1168.9 84.368 1169.1 84.6038 1169.24 84.8788 1169.42 85.1342 1169.5 85.3896 1169.61 85.6393 1169.67 85.9005 1170.14 87.7594 1169.73 86.6609 1170.18 88.71 1170.24 88.9728 1170.35 89.2208 1170.44 89.4762 1170.52 90.0722 1170.52 90.6875 1170.7 91.2641 1170.78 91.5581 1171.07 91.7558 1171.21 92.0303 1171.33 92.2712 1171.38 92.5412 1171.46 92.7966 1171.38 94.1588 1171.21 95.5183 1171.21 96.8831 1171.21 97.3611 1171.6 98.1891 1171.72 98.6711 1171.83 99.0922 1171.9 99.521 1171.98 99.9481 1172.07 100.458 1172.07 100.989 1172.23 101.481 1172.33 101.772 1172.61 101.972 1172.74 102.247 1172.86 102.488 1172.91 102.758 1173 103.013 1172.83 103.354 1172.64 103.685 1172.49 104.035 1172.38 104.282 1172.37 104.567 1172.23 104.801 1172.02 105.171 1171.72 105.482 1171.46 105.823 1171.31 106.741 1171.3 107.321 1170.95 108.121 1170.8 108.471 1170.68 108.85 1170.44 109.143 1170.24 109.379 1169.93 109.483 1169.67 109.654 1169.5 109.909 1169.38 110.203 1169.16 110.42 1168.24 111.34 1168.24 110.972 1167.37 111.697 1167.09 111.928 1166.85 112.208 1166.6 112.463 1166.43 112.974 1166.22 113.473 1166.09 113.996 1165.92 114.677 1165.89 115.411 1165.57 116.039 1165.4 116.38 1165.21 116.711 1165.06 117.061 1164.96 117.308 1164.94 117.592 1164.81 117.827 1164.51 118.364 1163.78 119.359 1163.78 119.359 1163.4 120.697 1163.4 121.094 1162.76 122.169 1162.44 122.695 1162.25 123.361 1161.73 123.701 1161.22 124.042 1160.63 124.289 1160.2 124.723 1159.94 124.978 1159.72 125.279 1159.43 125.489 1159.12 125.711 1158.76 125.859 1158.4 126 1157.9 126.2 1156.87 126.511 1156.87 126.511 1156.53 126.426 1156.03 126.553 1155.84 126.256 1155.52 125.745 1156.13 124.737 1155.59 124.468 1155.14 124.246 1155.12 125.348 1154.82 125.745 1154.6 126.034 1154.28 126.233 1154.05 126.511 1152.98 127.788 1154.18 126.851 1152.77 127.788L1151.75 129.32 1151.24 130.087C1151.15 130.768 1151.1 131.455 1150.98 132.13 1150.82 133.02 1150.52 133.124 1149.96 133.918 1149.18 135.001 1149.79 134.452 1148.67 135.195 1148.59 135.45 1148.68 135.908 1148.42 135.961 1147.66 136.112 1146.88 135.779 1146.11 135.706 1145.09 135.609 1144.07 135.535 1143.04 135.45 1142.61 135.365 1142.18 135.3 1141.76 135.195 1141.5 135.13 1141.18 135.13 1140.99 134.939 1140.8 134.749 1140.82 134.429 1140.74 134.173 1139.37 134.258 1138 134.286 1136.64 134.429 1136.37 134.457 1136.14 134.631 1135.87 134.684 1135.28 134.802 1134.68 134.854 1134.08 134.939 1132.2 134.769 1130.29 134.828 1128.45 134.429 1128.18 134.371 1128.38 133.853 1128.19 133.662 1128 133.472 1127.67 133.502 1127.42 133.407 1126.99 133.246 1126.57 133.053 1126.14 132.896 1125.63 132.712 1124.61 132.385 1124.61 132.385 1124.43 132.13 1124.4 131.657 1124.09 131.619 1122.9 131.471 1121.71 131.875 1120.51 131.875 1118.88 131.875 1117.27 131.704 1115.64 131.619L1114.11 130.598 1113.34 130.087C1112.76 128.356 1113.42 130.467 1112.83 127.533 1112.77 127.269 1112.65 127.025 1112.57 126.766 1111.93 124.521 1112.67 126.816 1112.06 124.978 1111.45 125.181 1110.91 125.382 1110.27 125.489 1109.59 125.602 1108.9 125.66 1108.22 125.745 1107.71 125.66 1107.16 125.7 1106.68 125.489 1106.21 125.282 1105.67 124.364 1105.4 123.957 1104.7 119.74 1105.52 124.173 1104.89 121.658 1104.78 121.237 1104.77 120.793 1104.63 120.381 1104.51 120.02 1104.27 119.709 1104.12 119.359 1104.01 119.112 1104.13 118.655 1103.87 118.593 1102.53 118.281 1101.13 118.423 1099.77 118.338 1099.85 118.849 1099.56 119.639 1100.02 119.87 1100.58 120.147 1101.22 119.537 1101.82 119.359 1102.08 119.282 1102.85 119.104 1102.58 119.104 1102.15 119.104 1101.73 119.274 1101.3 119.359 1100.73 121.664 1101.46 121.181 1100.02 121.658 1099.15 119.914 1099.63 120.998 1098.74 118.338L1098.49 117.572 1098.23 116.805C1097.91 112.65 1099.09 113.816 1096.44 113.23 1096.18 113.171 1095.93 113.059 1095.67 112.974 1095.33 112.719 1094.95 112.509 1094.65 112.208 1094.43 111.991 1094.32 111.687 1094.14 111.442 1093.55 110.665 1092.94 109.912 1092.34 109.143 1092.08 108.806 1091.88 108.422 1091.57 108.121 1091.32 107.866 1091.02 107.649 1090.81 107.355 1089.82 105.974 1090.91 106.537 1089.53 106.078 1089.36 105.823 1089.04 105.618 1089.01 105.312 1088.95 104.374 1089.14 103.433 1089.27 102.502 1089.31 102.236 1089.27 101.805 1089.53 101.736 1090.68 101.428 1091.92 101.566 1093.11 101.481 1093.71 101.566 1094.42 101.375 1094.9 101.736 1095.25 101.996 1095.09 102.584 1095.16 103.013 1095.26 103.691 1095.3 104.379 1095.42 105.056 1095.47 105.403 1095.45 105.804 1095.67 106.078 1095.84 106.288 1096.17 106.287 1096.44 106.333 1097.63 106.543 1098.83 106.674 1100.02 106.844 1100.11 106.589 1100.28 106.347 1100.28 106.078 1100.28 105.809 1100.09 105.573 1100.02 105.312 1099.92 104.891 1099.83 104.464 1099.77 104.035 1099.66 103.356 1099.6 102.672 1099.51 101.991 1099.17 102.077 1098.74 102.495 1098.49 102.247 1098.27 102.03 1098.76 101.677 1099 101.481 1099.29 101.237 1099.68 101.14 1100.02 100.97 1100.79 101.055 1101.9 100.584 1102.33 101.225 1105.55 106.05 1100.78 104.202 1103.35 105.056 1103.27 106.504 1103.02 107.95 1103.1 109.398 1103.11 109.705 1103.5 109.877 1103.61 110.165 1103.76 110.571 1103.74 111.026 1103.87 111.442 1104 111.881 1104.21 112.293 1104.38 112.719 1104.46 113.4 1104.54 114.082 1104.63 114.762 1104.88 116.518 1104.85 115.958 1105.15 117.572 1105.24 118.081 1105.17 118.641 1105.4 119.104 1105.54 119.379 1105.91 119.445 1106.17 119.615 1106.94 119.53 1107.7 119.429 1108.47 119.359 1109.58 119.259 1110.72 119.373 1111.8 119.104 1112.2 119.006 1112.87 117.886 1113.08 117.572 1113.17 117.231 1113.12 116.824 1113.34 116.55 1113.51 116.34 1113.84 116.347 1114.11 116.294 1114.7 116.176 1115.3 116.124 1115.9 116.039 1116.16 115.869 1116.43 115.725 1116.67 115.528 1118.64 113.889 1116.3 115.519 1118.2 114.251 1118.29 115.358 1118.46 116.461 1118.46 117.572 1118.46 119.031 1117.81 120.46 1118.46 121.914 1118.57 122.16 1118.97 122.084 1119.23 122.169 1119.48 122.084 1119.77 122.063 1120 121.914 1120.3 121.713 1120.44 121.309 1120.76 121.147 1121.15 120.953 1121.63 121.006 1122.05 120.892 1122.57 120.75 1123.58 120.381 1123.58 120.381 1123.84 120.211 1124.04 119.914 1124.35 119.87 1124.7 119.821 1125.04 120.002 1125.37 120.126 1125.73 120.259 1126.07 120.441 1126.4 120.636 1126.93 120.952 1127.35 121.464 1127.93 121.658L1128.7 121.914C1129.04 121.828 1129.46 121.433 1129.73 121.658 1130.14 122.003 1129.79 122.892 1130.24 123.191 1130.49 123.361 1130.73 123.564 1131.01 123.701 1131.53 123.963 1132.57 124.115 1133.06 124.212 1133.91 124.127 1134.8 124.227 1135.62 123.957 1135.91 123.86 1135.89 123.382 1136.13 123.191 1136.34 123.022 1136.64 123.02 1136.9 122.935 1137.49 123.105 1138.09 123.264 1138.69 123.446 1139.2 123.604 1140.22 123.957 1140.22 123.957 1140.38 124.42 1140.48 125.55 1141.25 124.212 1141.49 123.789 1141.32 122.48 1142.02 122.169 1142.57 121.924 1143.21 122.012 1143.81 121.914 1144.24 121.842 1144.66 121.743 1145.09 121.658 1145.18 121.403 1145.3 121.156 1145.35 120.892 1145.55 119.791 1145.48 118.626 1145.86 117.572 1145.95 117.318 1146.39 117.447 1146.63 117.316 1149.27 115.852 1147.19 116.617 1148.93 116.039 1149.19 116.294 1149.46 116.531 1149.7 116.805 1149.98 117.128 1150.17 117.526 1150.47 117.827 1150.68 118.044 1150.98 118.167 1151.24 118.338 1151.32 118.593 1151.34 118.88 1151.49 119.104 1152.46 120.551 1153.4 119.965 1155.33 120.126 1155.59 120.211 1155.84 120.307 1156.1 120.381 1156.44 120.477 1156.83 120.442 1157.12 120.636 1157.38 120.807 1157.51 121.122 1157.64 121.403 1157.86 121.895 1157.7 122.636 1158.15 122.935L1158.92 123.446C1159.69 123.361 1160.57 123.604 1161.22 123.191 1161.68 122.901 1161.56 122.169 1161.73 121.658L1161.99 120.892C1161.38 119.068 1161.78 119.807 1160.97 118.593 1160.88 118.082 1160.82 117.566 1160.71 117.061 1160.65 116.798 1160.38 116.554 1160.45 116.294 1160.65 115.56 1161.48 114.251 1161.48 114.251 1162.06 111.91 1161.4 112.597 1162.76 111.697 1162.66 111.498 1161.99 110.285 1161.99 109.909 1161.99 109.223 1162.12 108.541 1162.25 107.866 1162.29 107.601 1162.37 107.335 1162.5 107.1 1162.8 106.563 1163.53 105.567 1163.53 105.567 1163.78 105.652 1164.05 105.702 1164.29 105.823 1164.57 105.96 1164.76 106.408 1165.06 106.333 1165.32 106.268 1165.2 105.808 1165.32 105.567 1165.46 105.293 1165.66 105.056 1165.83 104.801 1165.92 104.546 1166.09 104.304 1166.09 104.035 1166.09 102.886 1165.73 102.705 1165.32 101.736 1164.68 100.256 1165.53 101.676 1164.55 100.204 1164.65 99.2191 1164.88 96.6912 1165.06 95.6061 1165.21 94.7497 1165.3 93.8757 1165.57 93.052L1165.83 92.2858C1165.75 90.2425 1165.72 88.1958 1165.57 86.1559 1165.55 85.8057 1165.46 85.4569 1165.32 85.1342 1165.2 84.8521 1165 84.6038 1164.81 84.368 1164.19 83.6305 1164.03 83.5932 1163.27 83.0909 1163.18 82.8355 1162.93 82.5801 1163.01 82.3247 1163.21 81.7423 1164.04 80.7922 1164.04 80.7922 1163.95 80.3665 1164.01 79.8833 1163.78 79.5152 1163.37 78.8641 1162.64 78.7085 1161.99 78.4935 1161.73 77.7273 1161.56 77.7273 1161.99 76.9611 1162.29 76.4244 1163.01 75.4286 1163.01 75.4286 1163.1 75.1732 1163.46 74.8527 1163.27 74.6624 1162.89 74.2816 1161.73 74.1515 1161.73 74.1515 1161.51 74.0056 1160.33 73.3609 1160.45 72.8745 1160.52 72.6133 1160.97 72.7042 1161.22 72.6191 1161.35 72.1006 1161.74 71.3442 1161.22 70.8312 1161.03 70.6408 1160.71 70.6609 1160.45 70.5758 1160.59 70.1583 1160.8 69.3039 1161.22 69.0433 1161.68 68.7579 1162.76 68.5325 1162.76 68.5325L1163.53 67Z" fill="#70AD47" fill-rule="evenodd"/><path d="M613 6C613-11.6731 627.103-26 644.5-26 661.897-26 676-11.6731 676 6 676 23.6731 661.897 38 644.5 38 627.103 38 613 23.6731 613 6Z" fill="#EB746B" fill-rule="evenodd"/><path d="M629-9C629-10.6569 630.343-12 632-12L669-12C670.657-12 672-10.6569 672-9L672-9C672-7.34315 670.657-6 669-6L632-6C630.343-6 629-7.34315 629-9Z" fill="#E54F43" fill-rule="evenodd"/><path d="M613 2C613 0.343146 614.343-1 616-1L654-1C655.657-1 657 0.343146 657 2L657 2C657 3.65685 655.657 5 654 5L616 5C614.343 5 613 3.65685 613 2Z" fill="#B72419" fill-rule="evenodd"/><path d="M614 13C614 11.3431 615.343 10 617 10L672 10C673.657 10 675 11.3431 675 13L675 13C675 14.6569 673.657 16 672 16L617 16C615.343 16 614 14.6569 614 13Z" fill="#791811" fill-rule="evenodd"/><path d="M624 25C624 23.3431 625.343 22 627 22L665 22C666.657 22 668 23.3431 668 25L668 25C668 26.6569 666.657 28 665 28L627 28C625.343 28 624 26.6569 624 25Z" fill="#F9D2CF" fill-rule="evenodd"/><path d="M659 2C659 0.343146 660.343-1 662-1L669-1C670.657-1 672 0.343146 672 2L672 2C672 3.65685 670.657 5 669 5L662 5C660.343 5 659 3.65685 659 2Z" fill="#B72419" fill-rule="evenodd"/><path d="M620-10C620-11.1046 620.895-12 622-12L622-12C623.105-12 624-11.1046 624-10L624-8C624-6.89543 623.105-6 622-6L622-6C620.895-6 620-6.89543 620-8Z" fill="#E54F43" fill-rule="evenodd"/><path d="M982-0.500001 990.905-2.49946 993-11 995.095-2.49946 1004-0.500001 995.095 1.49945 993 10 990.905 1.49945Z" fill="#F2F2F2" fill-rule="evenodd"/><path d="M59 15.5 67.5005 13.5005 69.5 5 71.4995 13.5005 80 15.5 71.4995 17.4995 69.5 26 67.5005 17.4995Z" fill="#F2F2F2" fill-rule="evenodd"/><path d="M108-31.5 122.572-34.8324 126-49 129.428-34.8324 144-31.5 129.428-28.1676 126-14 122.572-28.1676Z" fill="#F2F2F2" fill-rule="evenodd"/><path d="M853-17 865.953-20.0468 869-33 872.047-20.0468 885-17 872.047-13.9532 869-1 865.953-13.9532Z" fill="#F2F2F2" fill-rule="evenodd"/><path d="M589 146.5 597.501 144.501 599.5 136 601.499 144.501 610 146.5 601.499 148.499 599.5 157 597.501 148.499Z" fill="#F2F2F2" fill-rule="evenodd"/><path d="M1189-5.5 1197.5-7.49946 1199.5-16 1201.5-7.49946 1210-5.5 1201.5-3.50055 1199.5 5 1197.5-3.50055Z" fill="#F2F2F2" fill-rule="evenodd"/><path d="M534 46.5 542.501 44.5005 544.5 36 546.499 44.5005 555 46.5 546.499 48.4995 544.5 57 542.501 48.4995Z" fill="#F2F2F2" fill-rule="evenodd"/><path d="M173 231.5 181.501 229.501 183.5 221 185.499 229.501 194 231.5 185.499 233.499 183.5 242 181.501 233.499Z" fill="#F2F2F2" fill-rule="evenodd"/><path d="M1394 346.5 1402.91 344.501 1405 336 1407.09 344.501 1416 346.5 1407.09 348.499 1405 357 1402.91 348.499Z" fill="#F2F2F2" fill-rule="evenodd"/><path d="M1202 245.5 1210.91 243.501 1213 235 1215.09 243.501 1224 245.5 1215.09 247.499 1213 256 1210.91 247.499Z" fill="#F2F2F2" fill-rule="evenodd"/><path d="M1380 67.5 1402.26 62.2633 1407.5 40 1412.74 62.2633 1435 67.5 1412.74 72.7367 1407.5 95 1402.26 72.7367Z" fill="#F2F2F2" fill-rule="evenodd"/><path d="M878 26.5 886.501 24.5005 888.5 16 890.499 24.5005 899 26.5 890.499 28.4995 888.5 37 886.501 28.4995Z" fill="#F2F2F2" fill-rule="evenodd"/><path d="M-125 308-116.499 305.905-114.5 297-112.501 305.905-104 308-112.501 310.095-114.5 319-116.499 310.095Z" fill="#F2F2F2" fill-rule="evenodd"/><path d="M-246 318.5-237.499 316.501-235.5 308-233.501 316.501-225 318.5-233.501 320.499-235.5 329-237.499 320.499Z" fill="#F2F2F2" fill-rule="evenodd"/><path d="M-234-42-225.095-44.0947-223-53-220.905-44.0947-212-42-220.905-39.9053-223-31-225.095-39.9053Z" fill="#F2F2F2" fill-rule="evenodd"/><path d="M-158 134-140.189 129.811-136 112-131.811 129.811-114 134-131.811 138.189-136 156-140.189 138.189Z" fill="#F2F2F2" fill-rule="evenodd"/><path d="M1060 479.5 1068.5 477.501 1070.5 469 1072.5 477.501 1081 479.5 1072.5 481.499 1070.5 490 1068.5 481.499Z" fill="#F2F2F2" fill-rule="evenodd"/><path d="M1109 433 1123.57 429.572 1127 415 1130.43 429.572 1145 433 1130.43 436.428 1127 451 1123.57 436.428Z" fill="#F2F2F2" fill-rule="evenodd"/><path d="M831 409.5 839.501 407.501 841.5 399 843.499 407.501 852 409.5 843.499 411.499 841.5 420 839.501 411.499Z" fill="#F2F2F2" fill-rule="evenodd"/><path d="M843 598.5 860.811 594.215 865 576 869.189 594.215 887 598.5 869.189 602.785 865 621 860.811 602.785Z" fill="#F2F2F2" fill-rule="evenodd"/><path d="M842 239.5 850.501 237.501 852.5 229 854.499 237.501 863 239.5 854.499 241.499 852.5 250 850.501 241.499Z" fill="#F2F2F2" fill-rule="evenodd"/><path d="M891 193 905.572 189.572 909 175 912.428 189.572 927 193 912.428 196.428 909 211 905.572 196.428Z" fill="#F2F2F2" fill-rule="evenodd"/><path d="M185 547.5 193.501 545.501 195.5 537 197.499 545.501 206 547.5 197.499 549.499 195.5 558 193.501 549.499Z" fill="#F2F2F2" fill-rule="evenodd"/><path d="M69 491 82.358 487.953 85.5 475 88.642 487.953 102 491 88.642 494.047 85.5 507 82.358 494.047Z" fill="#F2F2F2" fill-rule="evenodd"/><path d="M-219 509-206.047 505.953-203 493-199.953 505.953-187 509-199.953 512.047-203 525-206.047 512.047Z" fill="#F2F2F2" fill-rule="evenodd"/><path d="M-268 571.5-259.499 569.501-257.5 561-255.501 569.501-247 571.5-255.501 573.499-257.5 582-259.499 573.499Z" fill="#F2F2F2" fill-rule="evenodd"/><path d="M80 573.5 88.5005 571.501 90.5 563 92.4995 571.501 101 573.5 92.4995 575.499 90.5 584 88.5005 575.499Z" fill="#F2F2F2" fill-rule="evenodd"/><path d="M-162 496.5C-162 454.802-128.421 421-87 421-45.5787 421-12 454.802-12 496.5-12 538.198-45.5787 572-87 572-128.421 572-162 538.198-162 496.5Z" fill="#FFE699" fill-rule="evenodd"/><path d="M-150.612 460.512C-149.228 460.553-146.897 460.588-145.048 460.685-144.705 460.703-144.403 460.819-144.066 460.858-143.418 460.935-142.75 460.955-142.102 461.032-141.235 461.133-140.612 461.339-139.811 461.551-139.593 461.724-139.352 461.89-139.157 462.07-138.915 462.294-138.814 462.564-138.502 462.763-138.25 462.922-137.847 462.993-137.52 463.109-135.993 463.051-134.46 463.025-132.938 462.936-132.491 462.909-132.073 462.802-131.629 462.763-130.761 462.686-129.887 462.632-129.011 462.59-127.486 462.516-125.953 462.493-124.429 462.416-123.661 462.378-122.904 462.288-122.138 462.243-120.94 462.173-119.737 462.128-118.537 462.07-118.101 462.012-117.676 461.921-117.228 461.897-110.75 461.554-113.828 462.048-111.01 461.551-109.461 461.653-108.47 461.509-107.409 462.07-107.131 462.217-107.088 462.479-106.755 462.59-106.17 462.783-104.791 462.936-104.791 462.936-102.183 462.798-102.126 462.879-100.209 462.59-99.8774 462.539-99.5358 462.498-99.2272 462.416-98.8754 462.323-98.6137 462.143-98.2454 462.07-97.7245 461.967-97.1587 461.942-96.6089 461.897-94.8878 461.757-92.3912 461.639-90.7177 461.551-89.457 461.384-88.8309 461.282-87.4448 461.205-86.0301 461.126-84.6082 461.089-83.19 461.032-81.9899 461.089-80.733 461.003-79.5898 461.205-78.4168 461.411-78.3589 462.029-77.626 462.416-77.3479 462.564-76.9715 462.647-76.6442 462.763-73.9168 462.705-71.1854 462.686-68.4619 462.59-67.8552 462.568-66.5047 462.393-65.8436 462.243-65.3951 462.142-65.0017 461.971-64.5344 461.897-63.8988 461.796-63.2145 461.809-62.5707 461.724-61.9013 461.635-61.2876 461.438-60.607 461.378-56.8106 461.043-59.3057 461.225-53.0793 461.032-51.3703 461.122-50.0171 460.92-48.8245 461.551-48.5464 461.698-48.4771 461.94-48.1699 462.07-47.9005 462.184-47.53 462.219-47.188 462.243-45.8859 462.335-44.5697 462.359-43.2605 462.416-41.9514 462.359-40.6352 462.335-39.3331 462.243-38.9911 462.219-38.6859 462.114-38.3512 462.07-36.4821 461.823-37.0858 461.991-35.4056 461.724-34.4142 461.567-33.4418 461.378-32.4599 461.205L-31.4781 461.032C-31.1508 461.089-30.8048 461.123-30.4962 461.205-27.9584 461.876-31.0004 461.289-28.5325 461.724-27.6597 461.666-26.7795 461.634-25.9142 461.551-25.5748 461.518-25.2526 461.31-24.9323 461.378-24.5671 461.455-24.6295 461.804-24.2777 461.897-23.4731 462.11-21.6594 462.243-21.6594 462.243-21.3321 462.359-20.9557 462.442-20.6775 462.59-19.7395 463.086-20.228 463.065-19.6956 463.628-19.5197 463.814-19.2593 463.974-19.0411 464.148-18.6117 465.013-17.7121 467.206-17.1194 468.822-16.5268 470.437-16.1048 471.641-15.4851 473.842-14.8653 476.043-13.9101 479.303-13.4007 482.028-12.8914 484.752-11.2224 488.328-12.4289 490.187-13.6353 492.046-18.5009 492.355-20.6394 493.18-22.7778 494.004-23.8895 494.837-25.2596 495.134-26.6297 495.431-27.6548 494.961-28.8598 494.961-31.6983 494.961-34.5359 495.044-37.3693 495.134-38.1393 495.159-38.8957 495.254-39.6603 495.308L-42.2787 495.481-45.2243 495.654C-46.0978 495.708-46.9664 495.787-47.8426 495.827-49.4765 495.902-51.1155 495.942-52.752 496-55.043 495.942-57.3394 495.928-59.6251 495.827-59.9689 495.812-60.2741 495.702-60.607 495.654-61.4749 495.529-63.2253 495.308-63.2253 495.308-63.8209 494.993-64.8391 494.503-65.189 494.096-65.5176 493.713-65.5149 493.266-65.8436 492.884-66.0693 492.621-66.5149 492.429-66.8254 492.192-69.5576 490.104-67.6239 491.099-69.7711 490.287-70.2149 490.12-70.6438 489.941-71.0802 489.768-71.2984 489.537-71.3898 489.258-71.7348 489.076-74.7187 487.497-80.111 488.104-83.5173 488.037-85.4359 487.892-86.5328 487.851-88.4266 487.518L-90.3904 487.171C-94.4359 485.032-89.2609 487.951-92.3541 485.613-92.7965 485.279-93.517 485.07-93.9906 484.748-95.7793 483.531-93.4666 484.471-95.627 483.709-95.9543 483.421-96.3244 483.144-96.6089 482.844-96.7632 482.68-96.7448 482.476-96.9362 482.324-97.1929 482.121-97.649 482.004-97.9181 481.805-99.2458 480.822-97.8149 481.32-99.5545 480.247-99.8105 480.089-100.209 480.016-100.536 479.901-102.064 479.958-103.624 479.898-105.118 480.074-108.844 480.512-108.54 480.755-111.01 481.459-111.869 481.703-112.816 481.865-113.628 482.151L-115.592 482.844C-117.217 484.133-115.128 482.549-117.228 483.882-117.48 484.042-117.555 484.286-117.883 484.402-118.257 484.534-118.756 484.517-119.192 484.575-119.519 484.69-119.872 484.788-120.174 484.921-120.529 485.078-120.754 485.319-121.156 485.44-121.546 485.558-122.034 485.545-122.465 485.613-123.126 485.718-123.811 485.796-124.429 485.96-125.783 486.318-126.084 486.438-127.701 486.652-128.138 486.71-128.572 486.773-129.011 486.825-129.554 486.889-130.11 486.921-130.647 486.998-131.313 487.094-132.611 487.344-132.611 487.344-133.702 487.287-134.796 487.243-135.884 487.171-137.316 487.077-138.479 486.965-139.811 486.652-140.203 486.56-141.926 485.856-142.102 485.786-142.32 485.556-142.444 485.292-142.757 485.094-143.352 484.716-144.228 484.683-145.048 484.575-145.987 484.624-148.123 484.609-149.303 484.921-149.654 485.014-149.957 485.152-150.285 485.267-151.689 486.753-150.071 485.327-151.921 486.306-154.68 487.765-150.773 485.936-152.903 487.344-153.149 487.507-153.591 487.552-153.885 487.691-154.577 488.016-155.848 488.729-155.848 488.729-156.612 488.672-157.132 488.577-158.139 488.556-159.147 488.536-161.406 489.706-161.896 488.605-162.387 487.504-160.972 484.289-161.081 481.952-161.19 479.615-159.973 476.508-159.121 473.842-158.269 471.175-156.931 468.187-155.969 465.953-155.007 463.719-154.06 461.449-153.351 460.439-152.641 459.429-151.996 460.471-150.612 460.512Z" fill="#BF9000" fill-rule="evenodd"/><path d="M-161 511.067C-160.842 511.864-160.876 511.633-160.754 512.557-160.688 513.05-160.642 513.673-160.507 514.172-160.439 514.425-160.343 514.669-160.261 514.917L-160.014 515.662C-160.014 515.662-159.768 516.408-159.768 516.408-159.062 517.476-159.909 516.124-159.398 517.153-159.332 517.286-159.212 517.389-159.152 517.526-159.046 517.765-158.988 518.022-158.905 518.271L-158.782 518.643-158.289 520.134C-158.248 520.258-158.372 519.906-158.166 520.506-157.961 521.107-157.612 522.39-157.057 523.736-156.503 525.081-156.257 527.752-154.84 528.58-153.423 529.408-149.994 528.745-148.556 528.704-147.119 528.662-146.954 528.48-146.215 528.331-145.348 527.894-145.902 528.119-144.49 527.834-144.285 527.793-144.077 527.761-143.874 527.71-143.546 527.627-143.226 527.496-142.889 527.462L-141.657 527.338C-140.903 527.084-141.595 527.29-140.301 527.089-140.094 527.057-139.892 527-139.685 526.965-138.194 526.714-139.454 526.967-137.837 526.717-137.63 526.684-137.428 526.625-137.221 526.592-136.106 526.415-135.538 526.349-134.511 526.22-133.894 526.012-133.631 525.869-132.786 526.22-132.463 526.354-132.293 526.717-132.046 526.965L-131.677 527.338C-131.554 527.462-131.452 527.613-131.307 527.71L-130.938 527.959C-130.855 528.083-130.807 528.238-130.691 528.331-130.59 528.413-130.413 528.363-130.322 528.455-130.23 528.548-130.304 528.752-130.198 528.828-129.987 528.98-129.459 529.076-129.459 529.076-129.336 528.994-129.194 528.934-129.089 528.828-128.903 528.641-128.746 528.425-128.597 528.207-128.035 527.39-127.899 527.148-127.611 526.22-127.51 525.894-127.454 525.555-127.365 525.226-127.081 524.176-127.419 525.751-127.118 524.232-126.872 524.274-126.621 524.296-126.379 524.357-126.378 524.357-124.901 524.853-124.9 524.854-124.49 524.936-124.075 525-123.668 525.102-123.504 525.143-123.343 525.204-123.175 525.226-122.726 525.287-122.272 525.309-121.82 525.35-119.72 525.821-121.422 525.488-118.124 525.847-117.466 525.919-116.809 526.009-116.153 526.096-115.865 526.133-115.579 526.187-115.29 526.22-114.839 526.27-114.387 526.303-113.935 526.344-110.724 527.315-114.412 526.275-111.717 526.841-108.451 527.527-110.993 527.223-108.391 527.462-108.103 527.42-107.794 527.456-107.528 527.338-107.231 527.204-107.218 526.524-107.159 526.344-107.101 526.168-106.994 526.013-106.912 525.847-106.871 524.978-107.062 524.065-106.789 523.239-106.594 522.648-106.767 524.488-106.666 525.102-106.641 525.249-106.486 525.341-106.419 525.474-106.361 525.592-106.354 525.73-106.296 525.847-106.164 526.114-105.773 526.586-105.557 526.717-105.334 526.851-105.034 526.82-104.818 526.965L-104.448 527.213C-104.206 527.945-104.488 527.224-103.955 528.083-103.415 528.955-104.044 528.242-103.339 528.952-103.257 529.159-103.17 529.365-103.093 529.573-103.047 529.696-103.039 529.835-102.97 529.946-102.749 530.295-102.442 530.584-102.23 530.939-102.107 531.146-102.018 531.379-101.861 531.561-101.726 531.716-101.521 531.795-101.368 531.933-101.109 532.168-100.919 532.483-100.629 532.678-100.413 532.824-99.8894 532.927-99.8894 532.927-99.643 533.299-99.4031 533.676-99.1502 534.045-98.6637 534.753-98.0769 535.398-97.6717 536.156-97.3842 536.694-97.1517 537.266-96.8093 537.771-96.6125 538.061-96.2877 538.242-96.07 538.516-95.9553 538.661-95.9282 538.86-95.8236 539.013-95.5571 539.401-95.2381 539.75-94.9612 540.131-94.3215 541.01-94.7821 540.77-94.0987 541-93.7291 540.876-93.3546 540.765-92.9899 540.627-92.0514 540.273-92.2511 540.284-91.3882 539.882-91.1042 539.75-90.8055 539.651-90.5257 539.51-90.3933 539.443-90.2885 539.328-90.1561 539.261-90.04 539.203-89.9081 539.183-89.7865 539.137-89.5794 539.059-89.385 538.943-89.1705 538.889-88.725 538.776-88.2588 538.759-87.8152 538.64-87.0245 538.428-86.2767 538.057-85.4743 537.895-85.0636 537.812-84.6549 537.718-84.2422 537.646-83.4637 537.511-82.6608 537.493-81.9013 537.274-79.9133 536.701-82.3834 537.382-79.6835 536.777-78.6654 536.549-79.023 536.544-78.0819 536.28-76.6093 535.868-76.8943 535.944-75.6177 535.783-75.4124 535.701-75.2115 535.606-75.0017 535.535-74.841 535.481-74.6645 535.478-74.5089 535.411-74.3727 535.352-74.2797 535.21-74.1392 535.162-73.78 535.042-73.4 534.997-73.0304 534.914-72.8661 534.79-72.7212 534.634-72.5376 534.541-71.5669 534.052-72.5371 534.938-71.4287 534.045-70.1467 533.011-71.3551 533.846-70.443 532.927-70.3383 532.821-70.1966 532.761-70.0734 532.678-69.3269 531.549-70.5481 533.281-69.2109 531.933-68.6556 531.373-69.675 531.694-68.8413 531.064-68.6335 530.907-68.1021 530.815-68.1021 530.815-67.8948 530.824-64.7324 530.918-63.9131 531.064-63.6573 531.109-63.4285 531.261-63.1738 531.312-62.9685 531.354-62.7609 531.385-62.5578 531.436-62.4318 531.468-62.3131 531.525-62.1882 531.561-62.0254 531.607-61.8596 531.643-61.6953 531.685-61.1926 532.065-60.7361 532.337-60.3401 532.803-60.2064 532.96-60.1156 533.153-59.9705 533.299-59.8657 533.405-59.7146 533.452-59.6008 533.548-59.467 533.66-59.3688 533.813-59.2312 533.92-58.5805 534.431-58.564 534.255-58.1223 534.79-58.0275 534.904-57.9648 535.043-57.8759 535.162-57.595 535.54-57.299 535.906-57.0135 536.28-56.8883 536.444-56.8082 536.653-56.6439 536.777-56.6205 536.795-55.1352 537.946-54.919 538.019-53.9811 538.334-54.4345 538.216-53.5637 538.392L-48.5122 538.268C-48.2648 538.257-46.9662 537.903-46.9106 537.895-45.8408 537.741-46.3329 537.828-45.4321 537.646-45.3089 537.564-45.2011 537.451-45.0624 537.398-44.8663 537.324-44.6508 537.32-44.4464 537.274-44.2811 537.237-44.1164 537.197-43.9536 537.15-42.7147 536.793-44.6338 537.29-43.0911 536.901-42.7626 536.943-42.4173 536.913-42.1055 537.026-41.8266 537.126-41.3662 537.522-41.3662 537.522-41.2841 537.646-41.2454 537.816-41.1198 537.895-40.8996 538.034-40.3806 538.143-40.3806 538.143-40.3544 538.137-39.5939 537.958-39.5181 537.895-39.3604 537.762-39.2679 537.567-39.1485 537.398-38.7194 536.792-39.0685 537.257-38.6557 536.529-38.4271 536.125-38.3793 536.126-38.0396 535.783-37.9575 535.618-37.8986 535.438-37.7932 535.287-37.4536 534.797-37.1933 534.558-36.8076 534.169-35.5755 534.21-34.3403 534.195-33.1114 534.293-32.747 534.322-32.1605 534.53-31.7561 534.666-31.6329 534.955-31.5264 535.253-31.3865 535.535-31.3203 535.669-31.2656 535.829-31.1401 535.908-30.9198 536.046-30.4009 536.156-30.4009 536.156-30.2776 536.28-30.179 536.436-30.0312 536.529-29.8628 536.635-29.2913 536.819-29.0455 536.901-28.6028 537.199-28.518 537.278-27.9367 537.522-27.6969 537.623-27.4439 537.688-27.1975 537.771-27.0742 537.812-26.9567 537.879-26.8279 537.895L-25.8422 538.019C-24.9561 538.317-26.0626 537.956-24.9797 538.268-24.0956 538.522-25.2468 538.263-23.9941 538.516-23.8709 538.433-23.7029 538.394-23.6245 538.268-23.4868 538.045-23.4602 537.771-23.3781 537.522-23.337 537.398-23.3269 537.259-23.2549 537.15L-22.762 536.404-22.5156 536.032-22.2692 535.659C-21.9917 534.82-22.3765 535.73-21.7764 535.038-21.5813 534.814-21.4478 534.541-21.2836 534.293L-21.0371 533.92-20.7907 533.548C-20.7496 533.424-20.7306 533.29-20.6675 533.175-20.5237 532.914-20.1747 532.43-20.1747 532.43-19.8652 531.494-20.2826 532.647-19.8051 531.685-19.2949 530.656-20.1417 532.007-19.4354 530.939-19.3443 530.48-19.2954 529.929-18.9426 529.573-18.8379 529.468-18.6962 529.408-18.573 529.325-18.2633 528.388-18.6811 529.543-18.2034 528.58-18.1453 528.463-18.1432 528.321-18.0802 528.207-17.9363 527.946-17.681 527.745-17.5873 527.462L-17.0945 525.971C-17.0534 525.847-17.0434 525.708-16.9713 525.599L-16.7249 525.226C-16.6427 524.895-16.5856 524.556-16.4785 524.232-16.4374 524.108-16.4134 523.977-16.3553 523.86-16.2891 523.726-16.169 523.624-16.1089 523.487-16.0034 523.248-15.9446 522.99-15.8625 522.742L-15.616 521.997C-15.575 521.873-15.5183 521.753-15.4928 521.624-15.1913 520.105-15.5306 521.681-15.2464 520.631-15.1573 520.301-15 519.637-15 519.637-15.1232 519.554-15.2215 519.389-15.3696 519.389-15.5177 519.389-15.6187 519.55-15.7392 519.637-16.2698 520.019-16.1461 520.008-16.7249 520.258-16.8443 520.31-16.9784 520.324-17.0945 520.382-17.227 520.449-17.328 520.572-17.4641 520.631-17.6198 520.698-17.7951 520.705-17.957 520.755-18.3294 520.87-18.6962 521.003-19.0658 521.127-19.189 521.169-19.3081 521.226-19.4354 521.252L-20.0515 521.376C-20.2979 521.334-20.5874 521.398-20.7907 521.252-20.9285 521.152-20.8652 520.918-20.9139 520.755-21.0166 520.41-21.0528 519.846-21.5299 519.761-22.0976 519.66-22.6799 519.678-23.2549 519.637-23.4561 519.596-24.9845 519.264-25.3494 519.264-26.3359 519.264-27.3207 519.347-28.3063 519.389-29.6467 519.614-28.4745 519.362-29.6616 519.761-29.8984 519.841-30.2867 519.89-30.524 520.01-30.7382 520.117-30.9226 520.281-31.1401 520.382-31.4587 520.53-31.8063 520.608-32.1257 520.755-32.2605 520.817-32.3684 520.926-32.4954 521.003-34.6306 522.295-32.3285 520.919-33.9738 521.748-35.1375 522.335-34.126 521.965-34.9595 522.245-35.0827 522.328-35.1967 522.427-35.3291 522.494-35.4452 522.552-35.663 522.744-35.6987 522.618-35.8684 522.019-35.7385 521.371-35.8219 520.755-35.8623 520.456-35.9824 520.174-36.0683 519.885-36.1056 519.76-36.1404 519.633-36.1916 519.513-36.2639 519.343-36.3752 519.19-36.438 519.016-36.5402 518.733-36.5733 518.426-36.6844 518.146-36.8921 517.623-36.8875 517.858-37.3004 517.65-37.5146 517.542-37.6976 517.375-37.9165 517.277-38.0712 517.208-38.244 517.19-38.4093 517.153-39.2906 516.955-39.2056 517.012-40.3806 516.904-41.4483 516.987-42.522 517.013-43.5839 517.153-49.8336 517.975-43.359 517.229-47.4034 518.146-48.5825 518.414-49.8298 518.382-50.9764 518.768-51.0996 518.809-51.2244 518.846-51.346 518.892-51.553 518.97-51.7522 519.07-51.962 519.14-52.1227 519.194-52.2906 519.223-52.4549 519.264-53.1464 519.729-52.9943 519.656-54.1797 520.134-54.337 520.197-54.5097 520.211-54.6725 520.258-54.7974 520.294-54.919 520.341-55.0422 520.382-55.3952 520.331-55.9975 520.372-56.2742 520.01-56.6007 519.582-56.9674 519.155-57.1367 518.643-57.2933 518.17-57.3651 517.971-57.5063 517.401-57.5571 517.196-57.5256 516.964-57.6295 516.78-57.703 516.651-57.8759 516.615-57.9992 516.532L-61.6953 516.904C-61.8635 516.924-62.0216 516.998-62.1882 517.029-62.4739 517.081-62.7632 517.111-63.0506 517.153-63.1328 517.277-63.1814 517.432-63.297 517.526-63.3985 517.607-63.5368 517.65-63.6666 517.65-64.2841 517.65-64.8987 517.567-65.5148 517.526-65.8022 517.443-66.1098 517.412-66.3772 517.277-67.3669 516.778-66.7021 516.95-67.2396 516.408-67.3444 516.302-67.4861 516.242-67.6093 516.159-67.9192 515.691-67.8863 515.659-68.4717 515.29-68.5819 515.22-68.7165 515.202-68.8413 515.166-69.9723 514.84-70.1824 515.001-71.9215 514.917-72.2281 513.372-71.9215 515.187-71.9215 512.061-71.9215 511.149-71.896 510.227-72.0447 509.328-72.069 509.181-72.2858 509.154-72.4143 509.08-72.5738 508.988-72.7577 508.939-72.9072 508.831-73.049 508.729-73.135 508.561-73.2768 508.459-74.4118 507.641-73.1784 508.806-74.1392 507.838-74.2214 507.589-74.3489 507.352-74.3857 507.092-74.4267 506.803-74.4636 506.512-74.5089 506.223-74.5868 505.725-74.71 505.234-74.7552 504.732-74.7963 504.277-74.8222 503.82-74.8785 503.366-74.9044 503.157-74.9466 502.949-75.0017 502.745-75.07 502.493-75.2481 502-75.2481 502-75.6999 502.041-76.1501 502.107-76.6034 502.124-83.0776 502.375-79.7487 502.035-82.7637 502.373-83.152 502.47-83.2727 502.487-83.6262 502.621-84.5542 502.972-83.9092 502.786-84.735 502.994-85.3161 504.165-84.7272 502.82-85.1046 505.229-85.1391 505.45-85.2689 505.643-85.351 505.85-85.4455 506.326-85.5707 507.06-85.7207 507.589-85.7564 507.715-85.8028 507.838-85.8439 507.962-85.7617 508.127-85.7077 508.31-85.5975 508.459-85.4581 508.646-85.2558 508.778-85.1046 508.955-85.0083 509.069-84.9404 509.204-84.8582 509.328-84.735 509.949-84.5824 510.392-84.8582 511.067-85.1501 511.781-85.7065 512.204-86.3367 512.557-86.4502 512.621-86.5902 512.623-86.7063 512.682-86.8388 512.748-86.9474 512.856-87.076 512.93-87.2354 513.022-87.4045 513.096-87.5688 513.178-87.692 513.344-87.8466 513.49-87.9384 513.675-88.0141 513.828-87.9776 514.024-88.0616 514.172-88.1481 514.324-88.3197 514.41-88.4312 514.545-88.526 514.659-88.5729 514.812-88.6776 514.917-88.7823 515.023-88.9348 515.068-89.0473 515.166-89.2236 515.318-89.3758 515.497-89.5401 515.662-89.5811 515.787-89.5715 515.943-89.6633 516.035-90.1977 516.574-90.9407 516.13-91.5114 515.911-92.8907 515.381-92.755 515.203-93.9755 514.296-97.069 511.998-93.0987 515.22-96.07 512.557-96.4631 512.205-97.0104 512.005-97.3021 511.564-97.3843 511.439-97.469 511.317-97.5485 511.191-97.7565 510.862-98.1646 510.197-98.1646 510.197-98.2056 510.073-98.2421 509.947-98.2877 509.825-98.3654 509.616-98.4642 509.415-98.5342 509.204-98.6132 508.965-98.6619 508.574-98.7806 508.334-98.8468 508.201-98.9448 508.086-99.027 507.962-99.3296 506.742-98.8915 508.235-99.5198 506.968-99.5956 506.815-99.5673 506.624-99.643 506.471-99.7755 506.204-100.003 505.993-100.136 505.726-100.362 505.27-100.465 504.976-100.875 504.608-101.054 504.448-101.288 504.364-101.491 504.236-102.058 503.878-101.652 504.04-102.354 503.863-102.518 503.904-102.684 503.94-102.846 503.987-102.971 504.023-103.091 504.077-103.216 504.111-103.543 504.201-103.88 504.252-104.202 504.36-104.448 504.443-104.691 504.536-104.941 504.608-105.267 504.702-105.603 504.756-105.927 504.857-107.937 505.48-105.381 504.812-107.035 505.229-107.465 505.518-107.833 505.695-108.144 506.099-108.326 506.334-108.473 506.596-108.637 506.844-108.719 506.968-108.779 507.111-108.884 507.217-109.007 507.341-109.119 507.477-109.253 507.589-109.367 507.685-109.509 507.742-109.623 507.838-109.757 507.95-109.859 508.098-109.992 508.21-110.176 508.365-110.858 508.75-110.978 508.831-111.149 508.946-111.303 509.085-111.471 509.204-111.714 509.375-111.964 509.535-112.21 509.701-112.333 509.783-112.439 509.902-112.58 509.949-112.856 510.042-113.155 510.153-113.442 510.197-113.81 510.254-114.181 510.28-114.551 510.322-115.576 510.666-113.943 510.142-115.783 510.57-116.036 510.629-116.266 510.778-116.522 510.818-117.051 510.903-117.59 510.907-118.124 510.943L-122.067 511.191C-122.108 511.315-122.176 511.434-122.19 511.564-122.258 512.182-122.129 512.833-122.313 513.427-122.364 513.59-122.642 513.51-122.806 513.551-123.422 513.51-124.048 513.543-124.654 513.427-124.925 513.375-125.139 513.161-125.393 513.054-127.579 512.136-124.839 513.413-126.749 512.557-126.916 512.482-127.067 512.367-127.241 512.309-127.44 512.242-127.654 512.236-127.857 512.185-128.147 512.112-128.433 512.023-128.72 511.936-128.844 511.899-128.963 511.844-129.089 511.812-129.293 511.761-129.503 511.743-129.705 511.688-129.956 511.619-130.193 511.503-130.445 511.439-132.43 510.939-130.961 511.381-132.416 511.067-132.747 510.995-133.078 510.919-133.402 510.818-134.079 510.608-133.91 510.581-134.511 510.322-134.842 510.178-135.135 510.146-135.496 510.073-135.619 509.99-135.727 509.876-135.866 509.825-136.709 509.516-137.068 509.581-137.96 509.452-138.168 509.422-138.37 509.363-138.576 509.328-138.863 509.28-139.151 509.245-139.439 509.204-141.77 509.256-143.5 508.883-145.476 509.452-145.601 509.488-145.722 509.535-145.846 509.576-146.371 509.93-146.547 510.092-147.078 510.322-147.197 510.373-147.321 510.414-147.447 510.446-147.829 510.542-148.089 510.537-148.433 510.694-149.823 511.331-148.946 511.072-149.911 511.315-150.486 511.274-151.079 511.339-151.636 511.191-152.647 510.923-152.02 510.735-152.376 510.197-152.458 510.073-152.622 510.032-152.745 509.949-152.827 509.825-152.851 509.624-152.992 509.576-153.794 509.307-156.298 509.557-156.688 509.576-156.811 509.701-156.923 509.837-157.057 509.949-157.171 510.045-157.334 510.081-157.427 510.197-157.508 510.3-157.509 510.446-157.55 510.57-157.591 510.819-157.619 511.069-157.673 511.315-157.702 511.443-157.691 511.612-157.797 511.688-158.008 511.84-158.289 511.854-158.536 511.936-158.536 511.936-159.275 512.185-159.275 512.185L-161 511.067Z" fill="#7F6000" fill-rule="evenodd"/><path d="M-125 561.88C-124.918 561.671-124.897 561.425-124.753 561.254-124.634 561.113-124.42 561.097-124.26 561.004-124.132 560.93-124.027 560.812-123.891 560.754-123.531 560.602-123.151 560.504-122.781 560.379L-122.411 560.254C-122.288 560.129-122.176 559.992-122.042 559.879-120.808 558.836-121.736 561.265-121.549 556.502-121.384 556.585-121.215 556.659-121.056 556.752-120.765 556.92-120.457 557.185-120.193 557.377-120.072 557.464-119.97 557.608-119.823 557.627-119.007 557.735-118.179 557.711-117.358 557.752-116.39 557.677-115.951 557.708-115.139 557.502-115.013 557.47-114.892 557.419-114.769 557.377-114.447 556.396-114.745 556.491-113.906 557.002-113.626 557.854-113.888 557.884-113.043 557.627-112.831 557.563-112.633 557.46-112.427 557.377-111.603 556.541-112.316 557.133-111.318 556.627-111.103 556.518-110.912 556.368-110.701 556.251-110.38 556.073-109.723 555.741-109.345 555.626-109.145 555.565-108.935 555.543-108.729 555.501-108.606 555.418-108.507 555.264-108.359 555.251-107.475 555.169-107.449 555.318-106.88 555.751-106.446 556.412-106.854 555.881-106.141 556.502-105.245 557.281-106.359 556.468-105.278 557.252-105.157 557.339-105.044 557.443-104.908 557.502-104.752 557.57-104.579 557.586-104.415 557.627-103.881 557.586-103.344 557.572-102.812 557.502-102.397 557.447-101.996 557.299-101.58 557.252L-100.471 557.127C-100.224 557.169-99.968 557.172-99.7309 557.252-99.5904 557.299-99.4998 557.449-99.3611 557.502-99.1649 557.577-98.9502 557.586-98.7448 557.627-98.4572 557.586-98.1517 557.612-97.8819 557.502-97.7201 557.436-97.646 557.24-97.5122 557.127-97.0924 556.772-97.0931 556.952-96.6493 556.502-96.504 556.354-96.4439 556.126-96.2795 556.001-96.1025 555.867-95.8517 555.869-95.6632 555.751-94.9316 555.294-94.8005 555.126-94.3073 554.625-94.2101 554.231-94.3005 554-93.8142 554-93.6843 554-93.5742 554.118-93.4445 554.125-91.9255 554.202-90.4039 554.208-88.8837 554.25-88.6782 554.292-88.4548 554.28-88.2673 554.375-88.1115 554.454-88.0315 554.637-87.8976 554.75-87.7838 554.847-87.651 554.917-87.5278 555.001-87.2496 556.13-87.5651 554.754-87.2813 556.627-87.237 556.918-87.1268 557.222-87.0347 557.502-86.9525 557.377-86.8929 557.233-86.7882 557.127-86.3767 556.709-85.8928 556.788-85.309 556.752-84.3239 556.691-83.3368 556.668-82.3507 556.627-80.5513 556.461-80.2751 556.374-78.0365 556.627-77.8892 556.643-77.7899 556.793-77.6667 556.877-77.6256 557.002-77.6015 557.134-77.5434 557.252-77.4772 557.386-77.4016 557.521-77.2969 557.627-77.1516 557.775-76.9822 557.899-76.8038 558.002-76.4549 558.205-75.4927 558.234-75.3246 558.253-75.2014 558.294-75.0822 558.352-74.9548 558.378-74.6699 558.435-74.3618 558.393-74.092 558.503-73.9302 558.568-73.8455 558.753-73.7222 558.878-73.6811 559.253-73.6359 559.628-73.5989 560.004-73.5538 560.462-73.7162 560.989-73.4757 561.38-73.3668 561.556-73.1341 561.145-72.9826 561.004-71.5281 559.651-72.4992 560.344-71.6267 559.753-71.5445 559.628-71.4959 559.472-71.3802 559.378-71.2788 559.296-71.1403 559.253-71.0104 559.253-70.0234 559.253-69.0382 559.337-68.0521 559.378-67.9288 559.462-67.7871 559.522-67.6823 559.628-67.5775 559.735-67.5514 559.91-67.4357 560.004-67.3554 560.069-66.605 560.246-66.5729 560.254-66.4908 560.504-66.3894 560.748-66.3264 561.004-66.2853 561.171-66.3147 561.375-66.2031 561.505-65.7178 562.067-65.366 562.021-64.7239 562.13-64.6007 562.213-64.4867 562.313-64.3542 562.38-64.1571 562.48-63.6756 562.577-63.4913 562.63-63.3664 562.667-63.2448 562.714-63.1215 562.755-62.7106 562.714-62.2769 562.773-61.8889 562.63-61.7667 562.585-61.8468 562.358-61.7656 562.255-61.6731 562.138-61.5191 562.088-61.3958 562.005-60.9439 562.047-60.4588 561.953-60.0399 562.13-59.0341 562.555-60.7979 562.728-59.5469 562.88-58.6484 562.99-57.739 562.964-56.8351 563.005L-56.0955 563.256C-55.9722 563.297-55.8338 563.308-55.7257 563.381-55.6024 563.464-55.4913 563.57-55.3559 563.631-54.844 563.862-54.5273 563.899-54 564.006-54.0411 564.131-54.0421 564.278-54.1233 564.381-54.3967 564.728-54.8602 564.681-55.2326 564.757-55.3988 564.79-55.5613 564.84-55.7257 564.882-56.6274 565.492-55.4929 564.747-56.5885 565.382-56.7172 565.457-56.8229 565.571-56.9583 565.632-57.1958 565.739-57.4513 565.799-57.6979 565.882L-58.0677 566.007C-58.0679 566.007-58.8072 566.257-58.8073 566.257-59.2182 566.341-59.6424 566.373-60.0399 566.508L-60.7795 566.758C-61.8392 567.475-60.4985 566.615-61.5191 567.133-61.6516 567.2-61.7535 567.322-61.8889 567.383-62.4929 567.656-62.5695 567.59-63.1215 567.758-63.3704 567.834-63.6146 567.925-63.8611 568.009-63.9844 568.05-64.1035 568.108-64.2309 568.134-64.4363 568.175-64.6451 568.203-64.8472 568.259-65.0979 568.328-65.3347 568.445-65.5868 568.509-66.332 568.698-65.9191 568.58-66.8194 568.884L-67.1892 569.009C-67.3125 569.051-67.4308 569.113-67.559 569.134L-68.2986 569.259C-68.5857 569.304-68.8756 569.332-69.1615 569.384-69.3282 569.415-69.4884 569.476-69.6545 569.509-69.8996 569.559-70.1501 569.58-70.3941 569.635-70.5209 569.663-70.3887 569.578-70.7639 569.76-71.1391 569.942-71.6955 570.606-72.6456 570.727-73.4673 570.915-75.1246 570.838-75.6944 570.885-76.2642 570.932-75.9348 570.999-76.0642 571.01L-77.5434 571.135C-77.6667 571.177-77.7858 571.235-77.9132 571.26-78.4577 571.371-79.5203 571.461-80.0087 571.511-80.173 571.552-80.3333 571.617-80.5017 571.636-81.4856 571.743-82.1498 571.826-83.4601 571.886-84.7703 571.946-87.6227 572.013-88.3633 571.998L-97.0191 571.511C-97.201 571.484-98.394 571.318-98.6215 571.26-98.8736 571.197-99.1146 571.094-99.3611 571.01L-99.7309 570.885-100.101 570.76C-100.224 570.719-100.362 570.708-100.471 570.635-100.889 570.352-100.993 570.234-101.58 570.135-103.764 569.765-101.037 570.235-102.936 569.885-103.182 569.839-103.429 569.805-103.675 569.76-103.882 569.722-104.084 569.665-104.292 569.635-104.66 569.581-105.033 569.563-105.401 569.509-105.608 569.479-105.815 569.44-106.017 569.384-106.268 569.315-106.501 569.178-106.757 569.134-106.998 569.093-107.842 568.959-108.113 568.884-108.364 568.815-108.606 568.717-108.852 568.634-108.976 568.592-109.114 568.582-109.222 568.509-109.345 568.425-109.457 568.32-109.592 568.259-109.592 568.259-110.516 567.946-110.701 567.883L-111.811 567.508-112.181 567.383C-112.304 567.341-112.423 567.284-112.55 567.258-113.412 567.083-112.96 567.168-113.906 567.008-114.153 566.925-114.394 566.822-114.646 566.758-114.975 566.674-115.311 566.616-115.632 566.508-115.755 566.466-115.877 566.419-116.002 566.383-117.086 566.068-115.978 566.432-116.865 566.132-117.924 565.416-116.584 566.275-117.604 565.757-118.56 565.272-117.414 565.696-118.344 565.382-118.467 565.299-118.578 565.193-118.714 565.132-118.951 565.025-119.453 564.882-119.453 564.882-119.7 564.715-120.028 564.631-120.193 564.381-120.275 564.256-120.328 564.105-120.439 564.006-120.662 563.808-120.871 563.676-121.179 563.506-121.487 563.336-121.846 563.135-122.288 562.986L-123.767 562.13C-123.891 562.088-124.007 562.005-124.137 562.005L-125 561.88Z" fill="#FFF2CC" fill-rule="evenodd"/><path d="M-49 431.12C-49.0822 431.329-49.1026 431.575-49.2465 431.746-49.3661 431.887-49.58 431.903-49.7396 431.996-49.8682 432.07-49.9726 432.188-50.1094 432.246-50.4692 432.398-50.8489 432.496-51.2188 432.621L-51.5885 432.746C-51.7118 432.871-51.8244 433.008-51.9583 433.121-53.1919 434.164-52.2636 431.735-52.4514 436.498-52.6157 436.415-52.7849 436.341-52.9444 436.248-53.2348 436.08-53.5429 435.815-53.8073 435.623-53.9278 435.536-54.0302 435.392-54.1771 435.373-54.993 435.265-55.8206 435.289-56.6424 435.248-57.6103 435.323-58.0493 435.292-58.8611 435.498-58.9872 435.53-59.1076 435.581-59.2309 435.623-59.5532 436.604-59.2546 436.509-60.0938 435.998-60.3738 435.146-60.1119 435.116-60.9566 435.373-61.1686 435.437-61.3675 435.54-61.5729 435.623-62.3972 436.459-61.6838 435.867-62.6823 436.373-62.8966 436.482-63.0883 436.632-63.2986 436.749-63.6201 436.927-64.2768 437.259-64.6545 437.374-64.8552 437.435-65.0654 437.457-65.2708 437.499-65.3941 437.582-65.4931 437.736-65.6406 437.749-66.5251 437.831-66.5512 437.682-67.1198 437.249-67.5537 436.588-67.1459 437.119-67.8594 436.498-68.7553 435.719-67.6408 436.532-68.7222 435.748-68.8428 435.661-68.9558 435.557-69.092 435.498-69.2477 435.43-69.4207 435.414-69.5851 435.373-70.1192 435.414-70.6563 435.428-71.1875 435.498-71.603 435.553-72.0037 435.701-72.4201 435.748L-73.5295 435.873C-73.776 435.831-74.032 435.828-74.2691 435.748-74.4096 435.701-74.5002 435.551-74.6389 435.498-74.8351 435.423-75.0498 435.414-75.2552 435.373-75.5428 435.414-75.8483 435.388-76.1181 435.498-76.2799 435.564-76.354 435.76-76.4878 435.873-76.9076 436.228-76.9069 436.048-77.3507 436.498-77.496 436.646-77.5561 436.874-77.7205 436.999-77.8975 437.133-78.1483 437.131-78.3368 437.249-79.0684 437.706-79.1995 437.874-79.6927 438.375-79.7899 438.769-79.6995 439-80.1858 439-80.3157 439-80.4258 438.882-80.5555 438.875-82.0745 438.798-83.5961 438.792-85.1163 438.75-85.3218 438.708-85.5452 438.72-85.7327 438.625-85.8885 438.546-85.9685 438.363-86.1024 438.25-86.2162 438.153-86.349 438.083-86.4722 437.999-86.7504 436.87-86.4349 438.246-86.7187 436.373-86.763 436.082-86.8732 435.778-86.9653 435.498-87.0475 435.623-87.1071 435.767-87.2118 435.873-87.6233 436.291-88.1072 436.212-88.691 436.248-89.6761 436.309-90.6632 436.332-91.6493 436.373-93.4487 436.539-93.7249 436.626-95.9635 436.373-96.1108 436.357-96.2101 436.207-96.3333 436.123-96.3744 435.998-96.3985 435.866-96.4566 435.748-96.5228 435.614-96.5984 435.479-96.7031 435.373-96.8484 435.225-97.0178 435.101-97.1962 434.998-97.5451 434.795-98.5073 434.766-98.6754 434.747-98.7986 434.706-98.9178 434.648-99.0452 434.622-99.3301 434.565-99.6382 434.607-99.908 434.497-100.07 434.432-100.155 434.247-100.278 434.122-100.319 433.747-100.364 433.372-100.401 432.996-100.446 432.538-100.284 432.011-100.524 431.62-100.633 431.444-100.866 431.855-101.017 431.996-102.472 433.349-101.501 432.656-102.373 433.246-102.455 433.372-102.504 433.528-102.62 433.622-102.721 433.704-102.86 433.747-102.99 433.747-103.977 433.747-104.962 433.663-105.948 433.622-106.071 433.538-106.213 433.478-106.318 433.372-106.422 433.265-106.449 433.09-106.564 432.996-106.645 432.931-107.395 432.754-107.427 432.746-107.509 432.496-107.611 432.252-107.674 431.996-107.715 431.829-107.685 431.625-107.797 431.495-108.282 430.933-108.634 430.979-109.276 430.87-109.399 430.787-109.513 430.687-109.646 430.62-109.843 430.52-110.324 430.423-110.509 430.37-110.634 430.334-110.755 430.286-110.878 430.245-111.289 430.286-111.723 430.227-112.111 430.37-112.233 430.415-112.153 430.642-112.234 430.745-112.327 430.862-112.481 430.912-112.604 430.995-113.056 430.953-113.541 431.047-113.96 430.87-114.966 430.445-113.202 430.272-114.453 430.12-115.352 430.01-116.261 430.036-117.165 429.995L-117.905 429.744C-118.028 429.703-118.166 429.692-118.274 429.619-118.398 429.536-118.509 429.43-118.644 429.369-119.156 429.138-119.473 429.101-120 428.994-119.959 428.869-119.958 428.722-119.877 428.619-119.603 428.272-119.14 428.319-118.767 428.243-118.601 428.21-118.439 428.16-118.274 428.118-117.373 427.508-118.507 428.253-117.411 427.618-117.283 427.543-117.177 427.429-117.042 427.368-116.804 427.261-116.549 427.201-116.302 427.118L-115.932 426.993C-115.932 426.993-115.193 426.743-115.193 426.743-114.782 426.659-114.358 426.627-113.96 426.492L-113.22 426.242C-112.161 425.525-113.502 426.385-112.481 425.867-112.348 425.8-112.246 425.678-112.111 425.617-111.507 425.344-111.43 425.41-110.878 425.242-110.63 425.166-110.385 425.075-110.139 424.991-110.016 424.95-109.896 424.892-109.769 424.866-109.564 424.825-109.355 424.797-109.153 424.741-108.902 424.672-108.665 424.555-108.413 424.491-107.668 424.302-108.081 424.42-107.181 424.116L-106.811 423.991C-106.687 423.949-106.569 423.887-106.441 423.866L-105.701 423.741C-105.414 423.696-105.124 423.668-104.839 423.616-104.672 423.585-104.512 423.524-104.345 423.491-104.1 423.441-103.85 423.42-103.606 423.365-103.479 423.337-103.611 423.422-103.236 423.24-102.861 423.058-102.304 422.394-101.354 422.273-100.533 422.085-98.8754 422.162-98.3056 422.115-97.7358 422.067-98.0652 422.001-97.9358 421.99L-96.4566 421.865C-96.3333 421.823-96.2142 421.765-96.0868 421.739-95.5423 421.629-94.4797 421.539-93.9913 421.489-93.827 421.448-93.6667 421.383-93.4983 421.364-92.5144 421.257-91.8502 421.174-90.5399 421.114-89.2297 421.054-86.3773 420.986-85.6367 421.002L-76.9809 421.489C-76.799 421.516-75.606 421.682-75.3785 421.739-75.1264 421.803-74.8854 421.906-74.6389 421.99L-74.2691 422.115-73.8993 422.24C-73.776 422.281-73.6376 422.292-73.5295 422.365-73.1107 422.648-73.0068 422.766-72.4201 422.865-70.2363 423.235-72.9631 422.765-71.0642 423.115-70.8183 423.161-70.5705 423.195-70.3246 423.24-70.1185 423.278-69.9157 423.335-69.7083 423.365-69.34 423.419-68.9673 423.437-68.599 423.491-68.3916 423.521-68.1848 423.56-67.9826 423.616-67.7319 423.685-67.4994 423.822-67.2431 423.866-67.0016 423.907-66.1578 424.041-65.8871 424.116-65.6364 424.185-65.3941 424.283-65.1476 424.366-65.0243 424.408-64.8859 424.418-64.7778 424.491-64.6545 424.575-64.5434 424.68-64.408 424.741-64.4078 424.741-63.4836 425.054-63.2986 425.117L-62.1892 425.492-61.8194 425.617C-61.6962 425.659-61.5771 425.716-61.4497 425.742-60.5883 425.917-61.04 425.832-60.0938 425.992-59.8472 426.075-59.6063 426.178-59.3542 426.242-59.0254 426.326-58.6895 426.384-58.368 426.492-58.2448 426.534-58.1232 426.581-57.9983 426.617-56.9145 426.932-58.0224 426.568-57.1354 426.868-56.0761 427.584-57.4161 426.725-56.3958 427.243-55.44 427.728-56.5858 427.304-55.6562 427.618-55.533 427.701-55.4218 427.807-55.2865 427.868-55.049 427.975-54.5469 428.118-54.5469 428.118-54.3003 428.285-53.9717 428.369-53.8073 428.619-53.7251 428.744-53.6723 428.895-53.5607 428.994-53.3378 429.192-53.1293 429.324-52.8212 429.494-52.513 429.664-52.1542 429.865-51.7118 430.014L-50.2326 430.87C-50.1094 430.912-49.9928 430.995-49.8629 430.995L-49 431.12Z" fill="#7F6000" fill-rule="evenodd"/><path d="M433.041 470.288 450.857 470.288 449.676 476.937C447.284 503.428 473.869 518.344 495.736 533.893 584.472 596.994 574.159 552.332 605.15 480.68L621.277 486.54C587.816 562.277 595.842 622.74 484.923 545.825 440.947 515.331 427.26 494.975 432.715 471.378ZM377.859 294.43C417.816 319.622 454.778 353.437 468.317 387.222L470.532 393.942 456.23 393.942 452.905 386.043C438.839 357.785 403.662 329.521 367.984 305.712Z" fill="#FFFFFF" fill-rule="evenodd"/><path d="M616.716 483.341C620.394 470.01 638.145 476.018 638.582 488.956 641.014 509.31 639.091 530.875 628.221 556.124 620.963 555.667 617.86 556.545 609.678 556.006 622.4 525.122 617.262 505.217 616.716 483.341Z" fill="#919C9D" fill-rule="evenodd"/><path d="M72.9762 0C86.6603 1.99257 82.9058 20.3518 70.1227 22.394 50.2281 27.3376 28.5922 28.1097 2.18771 20.462 1.73866 13.2043 0.482148 10.2338 0 2.0487 32.2253 10.8326 51.3371 3.26107 72.9762 0Z" fill="#B1B9BA" fill-rule="evenodd" transform="matrix(0.727178 -0.686449 -0.686449 -0.727178 565.674 536.825)"/><path d="M632.568 384.086C645.498 379.598 649.97 397.965 637.676 402.91 593.423 420.922 602.776 428.752 563.576 385.192L576.197 374.04C600.098 397.749 593.06 402.072 632.568 384.086Z" fill="#E0DCDF" fill-rule="evenodd"/><path d="M635.22 384.535C637.724 379.598 643.757 377.626 648.694 380.13L684.451 398.267C689.388 400.772 691.36 406.804 688.856 411.741L645.563 497.093C643.059 502.03 637.027 504.003 632.089 501.498L596.332 483.361C591.395 480.857 589.423 474.825 591.927 469.888Z" fill="#FFFFFF" fill-rule="evenodd"/><path d="M550.286 516.081 563.897 535.443 550.638 544.763 537.028 525.401Z" fill="#024562" fill-rule="evenodd"/><path d="M527.964 512.764C535.248 507.55 545.473 509.364 550.801 516.814 550.827 516.851 550.854 516.888 550.88 516.926L537.61 526.254Z" fill="#024562" fill-rule="evenodd"/><path d="M527.091 512.008C527.284 511.873 527.551 511.919 527.687 512.112L550.968 545.231C551.103 545.424 551.057 545.691 550.864 545.827L549.466 546.809C549.273 546.945 549.006 546.898 548.871 546.705L525.59 513.586C525.454 513.393 525.5 513.127 525.693 512.991Z" fill="#7D8F97" fill-rule="evenodd"/><rect x="0" y="0" width="23.6679" height="16.2064" fill="#024562" transform="matrix(-0.997457 0.0712645 0.0712645 0.997457 630.856 553.537)"/><path d="M0.000580384 16.3544C-0.0751778 7.39651 7.28827 0.0746306 16.4473 0.000535983 16.493 0.000166093 16.5387-1.88545e-05 16.5845-1.88545e-05L16.5845 16.2203Z" fill="#024562" fill-rule="evenodd" transform="matrix(-0.997457 0.0712645 0.0712645 0.997457 646.368 552.428)"/><path d="M0 0.427214C-8.22316e-17 0.19127 0.191268 0 0.427209 0L40.9103 0C41.1463 -8.22326e-17 41.3375 0.19127 41.3375 0.427214L41.3375 2.13594C41.3375 2.37188 41.1463 2.56315 40.9103 2.56315L0.427209 2.56315C0.191268 2.56315 0 2.37188 0 2.13594Z" fill="#7D8F97" fill-rule="evenodd" transform="matrix(-0.997457 0.0712645 0.0712645 0.997457 648.639 568.514)"/><path d="M681.615 345.664 692.812 351.344C699.358 354.664 701.972 362.661 698.652 369.207L684.076 397.944 649.176 380.242 663.752 351.504C667.072 344.959 675.07 342.344 681.615 345.664Z" fill="#FFFFFF" fill-rule="evenodd"/><path d="M642.705 411.028C643.94 408.593 646.915 407.621 649.35 408.856 651.784 410.09 652.757 413.065 651.522 415.5 650.287 417.935 647.312 418.907 644.878 417.672 642.443 416.437 641.47 413.463 642.705 411.028Z" fill="#C00000" fill-rule="evenodd"/><path d="M654.34 370.061 689.24 387.764 684.023 398.05 649.122 380.348Z" fill="#FFFFFF" fill-rule="evenodd"/><path d="M648.26 377.37C648.826 376.254 650.189 375.808 651.305 376.374L685.601 393.77C686.717 394.336 687.163 395.7 686.597 396.815L686.597 396.815C686.031 397.931 684.668 398.377 683.552 397.811L649.255 380.415C648.14 379.849 647.694 378.486 648.26 377.37Z" fill="#212452" fill-rule="evenodd"/><path d="M571.245 365.261 576.333 365.218 576.41 374.331 571.322 374.374Z" fill="#FFFFFF" fill-rule="evenodd"/><path d="M562.898 384.553 555.214 374.864C550.97 369.513 550.575 362.76 554.332 359.78 558.089 356.801 564.575 358.724 568.819 364.075L576.502 373.764Z" fill="#FFFFFF" fill-rule="evenodd"/><path d="M562.789 385.221C562.408 384.761 562.472 384.079 562.932 383.698L576.319 372.611C576.778 372.23 577.46 372.294 577.841 372.754L577.841 372.754C578.222 373.214 578.158 373.895 577.698 374.276L564.311 385.364C563.851 385.745 563.17 385.681 562.789 385.221Z" fill="#C00000" fill-rule="evenodd"/><path d="M570.836 369.812 570.91 365.338C570.951 362.867 572.21 360.883 573.722 360.908 575.234 360.933 576.427 362.957 576.386 365.428L576.313 369.902Z" fill="#FFFFFF" fill-rule="evenodd"/><path d="M634.837 425.529C636.072 423.095 639.047 422.122 641.481 423.357 643.916 424.592 644.889 427.567 643.654 430.002 642.419 432.436 639.444 433.409 637.009 432.174 634.574 430.939 633.602 427.964 634.837 425.529Z" fill="#C00000" fill-rule="evenodd"/><path d="M58.3289 1.94354C67.4103-5.43955 79.8884 10.064 71.5475 17.5371 38.2311 41.7537 52.2466 41.8952 0 26.0711L6.73256 10.2517C37.3557 17.9949 32.4296 27.3578 58.3289 1.94354Z" fill="#B1B9BA" fill-rule="evenodd" transform="matrix(-0.94598 -0.324226 -0.324226 0.94598 744.653 429.195)"/><rect x="0" y="0" width="5.08808" height="9.11328" fill="#FFFFFF" transform="matrix(-0.67005 -0.742316 -0.742316 0.67005 745.347 435.007)"/><path d="M0 0 12.3661 0C19.1958-2.21061e-15 24.7323 3.88697 24.7323 8.68178 24.7323 13.4766 19.1958 17.3636 12.3661 17.3636L0 17.3636Z" fill="#FFFFFF" fill-rule="evenodd" transform="matrix(0.997392 -0.0721717 -0.0721717 -0.997392 736.781 454.203)"/><path d="M0 1.08127C-3.11032e-16 0.484101 0.484099 -3.11033e-16 1.08127 -3.11033e-16L18.4631 0C19.0603 -3.11033e-16 19.5444 0.484101 19.5444 1.08127L19.5444 1.08127C19.5444 1.67844 19.0603 2.16254 18.4631 2.16254L1.08127 2.16252C0.484099 2.16252 -1.55516e-16 1.67842 -1.55516e-16 1.08125Z" fill="#C00000" fill-rule="evenodd" transform="matrix(-0.0509735 -0.9987 -0.9987 0.0509735 737.443 454.68)"/><path d="M0 0 4.47517 0C6.94674 -6.97316e-16 8.95034 1.22611 8.95034 2.73858 8.95034 4.25106 6.94674 5.47717 4.47517 5.47717L0 5.47717Z" fill="#FFFFFF" fill-rule="evenodd" transform="matrix(0.725408 -0.688319 -0.688319 -0.725408 742.271 438.387)"/><path d="M666.901 389.371 684.183 398.137C689.12 400.641 691.092 406.674 688.588 411.611L645.295 496.963C642.791 501.9 636.758 503.872 631.821 501.368L614.539 492.602Z" fill="#E6E6E6" fill-rule="evenodd"/><path d="M606.772 440.621 660.408 467.826 658.359 471.867 604.722 444.662Z" fill="#C00000" fill-rule="evenodd"/><path d="M626.487 469.888C626.817 469.235 627.614 468.975 628.266 469.306L644.235 477.405C644.887 477.736 645.148 478.533 644.817 479.185L644.817 479.185C644.486 479.837 643.689 480.098 643.037 479.767L627.068 471.668C626.416 471.337 626.156 470.54 626.487 469.888Z" fill="#212452" fill-rule="evenodd"/><path d="M628.43 466.056C628.761 465.404 629.558 465.144 630.21 465.474L646.178 473.574C646.831 473.905 647.091 474.702 646.76 475.354L646.76 475.354C646.429 476.006 645.633 476.267 644.98 475.936L629.012 467.836C628.36 467.505 628.099 466.708 628.43 466.056Z" fill="#212452" fill-rule="evenodd"/><path d="M687.598 348.566 692.866 351.238C699.412 354.558 702.285 362.046 699.283 367.963L686.106 393.942 668.987 385.259Z" fill="#E6E6E6" fill-rule="evenodd"/><path d="M694.04 368.296 686.478 383.205C685.433 385.263 682.918 386.086 680.86 385.042L659.754 374.336C658.291 373.594 657.706 371.807 658.448 370.344L667.105 353.278C667.847 351.815 669.634 351.231 671.097 351.973L692.203 362.678C694.262 363.722 695.084 366.238 694.04 368.296Z" fill="#212452" fill-rule="evenodd"/><path d="M661.389 374.949 674.784 353.626 680.939 356.749 667.544 378.071Z" fill="#F9F9FD" fill-rule="evenodd" fill-opacity="0.2"/><path d="M398.79 208.657C383.275 197.785 361.884 201.55 351.012 217.065 340.141 232.58 343.906 253.971 359.421 264.842 374.936 275.714 396.327 271.949 407.198 256.434 418.07 240.919 414.305 219.528 398.79 208.657ZM456.428 195.784 453.77 210.027C445.513 242.05 426.849 281.205 399.735 319.901 386.178 339.248 371.792 356.65 357.385 371.551L351.114 377.497 352.787 383.472C359.696 425.189 346.286 478.239 312.999 525.744 311.913 492.669 303.538 464.585 289.465 442.606L286.467 438.512 263.459 458.473 210.891 421.639 221.798 393.199 216.926 391.779C196.556 387.199 173.758 387.382 149.347 392.897L130.749 398.042 141.08 384.3C174.388 342.97 216.86 316.939 255.549 311.299L257.24 311.232 260.525 303.681C269.612 285.053 281.057 265.59 294.613 246.243 321.727 207.547 352.158 176.637 379.438 157.943L390.219 151.584 390.277 152.348C392.423 163.852 400.927 176.385 414.076 185.599 427.225 194.812 441.909 198.526 453.454 196.616ZM445.362 142.942C452.619 148.027 456.786 156.793 458.105 168.29L457.984 186.943 446.537 184.586C438.497 182.173 430.404 178.243 422.91 172.992 415.416 167.741 408.958 161.475 403.946 154.743L398.866 146.484 399.206 146.283C418.182 137.051 434.477 135.315 445.362 142.942Z" fill="#D9D9D9" fill-rule="evenodd"/><path d="M358.617 222.393C366.546 211.078 382.146 208.333 393.461 216.261 404.777 224.19 407.522 239.79 399.594 251.106 391.665 262.421 376.065 265.166 364.749 257.238 353.434 249.309 350.688 233.709 358.617 222.393Z" fill="#8FAADC" fill-rule="evenodd"/><path d="M389.869 151.638 389.927 152.402C392.073 163.906 400.577 176.439 413.726 185.653L414.817 186.289 398.824 209.114 398.44 208.711C382.925 197.839 361.534 201.604 350.663 217.119 339.791 232.634 343.556 254.025 359.071 264.897L359.581 265.119 236.919 440.176 210.541 421.694 221.449 393.253 216.577 391.833C196.206 387.253 173.409 387.436 148.998 392.951L130.4 398.096 140.73 384.354C174.038 343.024 216.51 316.993 255.199 311.353L256.89 311.286 260.175 303.736C269.262 285.107 280.707 265.645 294.264 246.297 321.378 207.601 351.808 176.691 379.088 157.997ZM445.013 142.996 445.089 143.087 423.646 173.688 422.56 173.046C415.066 167.795 408.609 161.529 403.596 154.797L398.516 146.538 398.856 146.337C417.832 137.105 434.127 135.369 445.013 142.996Z" fill="#FFFFFF" fill-rule="evenodd"/><path d="M467.244 110.442 459.031 179.243 459.093 179.256 457.793 190.062 452.255 190.422C442.165 190.154 430.663 186.303 420.144 178.932 409.624 171.562 402.078 162.066 398.382 152.673L396.52 146.285 415.653 136.469Z" fill="#A80000" fill-rule="evenodd"/><path d="M467.453 110.589 467.37 111.289 420.044 178.83 413.035 173.187C406.301 166.967 401.363 159.864 398.591 152.82L396.729 146.431 415.862 136.616Z" fill="#C00000" fill-rule="evenodd"/></g></svg>