<?xml version="1.0" standalone="no"?>
<!DOCTYPE svg PUBLIC "-//W3C//DTD SVG 20010904//EN"
 "http://www.w3.org/TR/2001/REC-SVG-20010904/DTD/svg10.dtd">
<svg version="1.0" xmlns="http://www.w3.org/2000/svg"
 width="776.000000pt" height="776.000000pt" viewBox="0 0 776.000000 776.000000"
 preserveAspectRatio="xMidYMid meet">
<metadata>
Created by potrace 1.11, written by Peter Selinger 2001-2013
</metadata>
<g transform="translate(0.000000,776.000000) scale(0.100000,-0.100000)"
fill="#000000" stroke="none">
<path d="M7640 7259 c-19 -4 -51 -11 -70 -14 -73 -12 -97 -16 -163 -30 -38 -8
-72 -14 -75 -13 -4 1 -34 -4 -66 -11 -33 -7 -69 -15 -80 -16 -12 -2 -32 -6
-46 -9 -13 -3 -40 -8 -60 -11 -20 -3 -47 -7 -60 -10 -37 -7 -141 -26 -170 -31
-14 -3 -47 -9 -75 -14 -27 -5 -61 -12 -75 -14 -14 -3 -34 -7 -45 -9 -11 -3
-40 -8 -65 -13 -25 -4 -47 -8 -50 -9 -17 -3 -80 -15 -110 -21 -19 -3 -42 -7
-50 -9 -8 -2 -36 -7 -61 -10 -26 -4 -52 -10 -58 -14 -19 -12 -17 -148 3 -249
12 -55 62 -192 89 -241 10 -19 30 -56 44 -82 13 -26 31 -53 39 -60 8 -6 14
-18 14 -25 0 -8 4 -14 8 -14 4 0 16 -14 25 -30 10 -17 63 -75 118 -131 158
-158 341 -267 499 -294 34 -6 36 -5 54 37 9 24 22 52 26 63 5 11 30 70 56 130
25 61 53 126 61 145 9 19 21 49 28 65 48 113 101 236 116 270 9 22 43 101 75
175 31 74 64 151 72 170 9 19 16 37 17 40 1 3 10 23 19 45 10 22 36 83 58 135
22 52 45 101 50 108 12 14 -35 15 -92 1z"/>
<path d="M5985 6909 c-60 -16 -117 -30 -125 -32 -8 -2 -24 -7 -35 -11 -11 -5
-33 -12 -50 -18 -16 -5 -39 -14 -50 -18 -314 -124 -535 -225 -723 -332 -20
-11 -61 -34 -91 -50 -109 -59 -276 -162 -439 -270 -41 -26 -78 -48 -83 -48 -5
0 -9 -4 -9 -8 0 -5 -16 -17 -35 -28 -19 -10 -35 -21 -35 -24 0 -3 -16 -14 -35
-24 -19 -11 -35 -23 -35 -28 0 -4 -4 -8 -10 -8 -12 0 -259 -184 -420 -314
-316 -254 -578 -497 -870 -807 -30 -32 -64 -69 -75 -83 -56 -72 -64 -77 -98
-72 -152 27 -515 27 -697 0 -19 -3 -48 -7 -65 -9 -68 -9 -107 -15 -150 -25
-25 -6 -62 -13 -82 -16 -76 -12 -444 -121 -485 -144 -10 -6 -23 -10 -29 -10
-6 0 -25 -6 -42 -14 -18 -7 -57 -24 -87 -36 -133 -55 -376 -174 -490 -241 -36
-21 -76 -44 -90 -51 -24 -13 -76 -46 -200 -126 -48 -32 -110 -76 -160 -115 -9
-7 -33 -25 -55 -42 -22 -16 -41 -33 -43 -37 -2 -4 -10 -8 -18 -8 -8 0 -14 -4
-14 -9 0 -5 -9 -13 -20 -16 -45 -14 -3 -22 127 -24 312 -4 476 -20 713 -72
107 -23 125 -27 125 -29 0 -1 11 -3 25 -6 85 -15 421 -143 530 -202 77 -42
140 -84 140 -93 0 -5 -24 -40 -52 -77 -61 -78 -59 -75 -99 -127 -16 -22 -35
-47 -42 -55 -36 -46 -135 -177 -141 -188 -8 -14 31 -71 104 -152 8 -9 20 -24
25 -32 6 -9 55 -72 110 -140 54 -67 104 -129 110 -136 5 -7 20 -23 31 -35 12
-12 84 -101 160 -197 76 -96 141 -177 144 -180 3 -3 22 -26 43 -52 30 -38 41
-46 55 -38 44 24 212 100 222 100 5 0 10 5 10 12 0 6 3 9 6 5 3 -3 23 3 42 14
20 10 40 19 44 19 4 0 46 19 93 41 48 23 90 38 95 33 10 -11 63 -193 61 -211
0 -2 5 -17 10 -35 5 -18 12 -49 15 -68 2 -19 7 -46 10 -60 2 -14 6 -36 9 -50
3 -14 8 -54 11 -90 3 -36 8 -83 10 -105 6 -53 6 -363 0 -444 -5 -58 -16 -163
-21 -201 -8 -59 -19 -136 -20 -140 -4 -20 -19 -99 -21 -115 -1 -11 -3 -20 -4
-20 -2 0 -6 -16 -14 -60 -3 -16 -10 -45 -15 -62 -5 -18 -7 -33 -3 -33 4 0 1
-4 -7 -9 -7 -5 -9 -11 -4 -14 29 -18 499 431 660 629 17 21 57 71 89 109 51
62 203 273 229 316 6 10 34 55 63 102 28 47 52 88 52 93 0 4 6 15 14 23 19 22
176 337 176 354 0 3 10 26 22 53 12 27 23 54 24 59 2 6 12 34 23 64 46 122
104 345 125 478 3 21 8 47 10 58 3 11 5 52 5 90 l1 70 78 40 c152 78 603 359
717 448 6 4 69 51 141 105 162 120 187 138 238 180 23 18 48 39 56 45 32 25
125 102 130 107 3 3 27 24 54 45 27 22 64 54 82 70 17 17 65 59 105 95 278
247 537 519 800 840 166 202 340 462 438 653 l70 137 -37 0 c-140 2 -347 97
-511 235 -55 46 -181 178 -181 190 0 5 -25 36 -47 60 -7 8 -13 17 -13 21 0 4
-6 15 -14 23 -39 45 -134 257 -151 337 -22 101 -26 135 -27 222 -1 45 -2 82
-2 81 -1 0 -50 -14 -111 -30z m-420 -832 c75 -19 136 -40 141 -48 3 -5 10 -7
15 -4 5 4 9 2 9 -2 0 -5 19 -17 41 -27 23 -10 81 -57 129 -105 67 -66 95 -103
123 -161 73 -148 91 -298 54 -445 -3 -11 -8 -33 -12 -50 -4 -16 -11 -34 -15
-40 -4 -5 -11 -21 -15 -35 -19 -61 -127 -194 -209 -256 -41 -30 -148 -83 -206
-100 -47 -14 -55 -15 -155 -19 -103 -5 -197 10 -262 40 -17 8 -35 15 -40 15
-19 0 -149 94 -191 137 -142 148 -210 354 -179 542 12 75 10 68 32 138 11 35
23 63 28 63 4 0 7 6 7 13 0 22 78 126 133 178 53 50 158 119 181 119 6 0 16 4
22 9 25 25 151 48 249 46 55 -2 109 -5 120 -8z"/>
<path d="M5289 5886 c-35 -12 -82 -34 -104 -48 -60 -38 -145 -125 -145 -148 0
-6 -4 -10 -9 -10 -5 0 -11 -8 -14 -17 -3 -10 -13 -38 -22 -63 -23 -62 -26 -76
-29 -151 -12 -267 208 -493 479 -492 219 1 416 162 463 379 12 55 8 173 -8
231 -28 99 -130 234 -208 274 -15 8 -29 16 -32 20 -3 3 -34 15 -70 26 -91 30
-215 29 -301 -1z"/>
</g>
</svg>
